<!-- end of mediation document -->
<svg class="document" version="1.1" xmlns="http://www.w3.org/2000/svg" xmlns:xlink="http://www.w3.org/1999/xlink" x="0px" y="0px"
width="1060.023px" height="1198.795px" viewBox="0 0 1060.023 1198.795" enable-background="new 0 0 1060.023 1198.795"
xml:space="preserve">
<rect x="210.279" y="138.46" transform="matrix(0.9397 -0.342 0.342 0.9397 -152.7684 213.0104)" fill="#FFF9DC" width="634.707" height="802.477"/>
<g>
    <path fill="#6A6A6A" d="M162.333,334.551c-0.431-1.185,0.359-2.173,2.727-3.035l2.988-1.088c1.635-0.595,3.075-0.672,4.105,0.229
        l16.346,14.035l3.613-21.299c0.209-1.354,1.363-2.22,2.998-2.815l2.932-1.066c2.367-0.862,3.608-0.612,4.039,0.572l13.133,36.083
        c0.432,1.184-0.357,2.173-2.727,3.035l-1.634,0.595c-2.368,0.862-3.609,0.611-4.04-0.573l-8.496-23.341l-0.245,0.026l-2.86,17.577
        c-0.262,0.862-0.794,1.502-1.865,1.893l-1.635,0.595c-1.071,0.39-1.892,0.242-2.645-0.25l-13.49-11.626l-0.206,0.139l8.495,23.341
        c0.432,1.184-0.357,2.174-2.725,3.036l-1.636,0.595c-2.368,0.861-3.608,0.61-4.04-0.573L162.333,334.551z"/>
    <path fill="#6A6A6A" d="M224.894,320.656c8.85-3.222,14.619,2.276,17.471,10.113c0.35,0.959-0.931,4.106-1.664,4.373l-14.377,5.232
        c2.036,4.367,4.974,4.894,8.639,3.56c3.552-1.292,5.396-3.943,6.186-4.231c1.24-0.451,4.08,2.091,4.49,3.218
        c1.026,2.819-5.513,6.604-8.67,7.752c-10.205,3.715-16.87-0.563-20.174-9.641C212.751,329.927,216.83,323.59,224.894,320.656z
            M233.425,331.469c-1.189-3.27-3.312-5.243-6.131-4.217c-2.368,0.862-3.904,2.954-3.002,7.542L233.425,331.469z"/>
    <path fill="#6A6A6A" d="M247.101,329.748c-3.345-9.189-1.234-16.726,6.377-19.496c2.648-0.964,4.895-0.76,6.387-0.345
        l-4.557-12.517c-0.43-1.184,0.358-2.173,2.728-3.035l1.578-0.575c2.367-0.862,3.608-0.611,4.039,0.573l11.204,30.783
        c2.113,5.808,3.221,6.745,3.652,7.929c0.492,1.354-4.248,3.59-5.658,4.103c-1.805,0.657-2.779-1.67-3.65-3.013
        c-0.414,2.896-2.521,5.706-6.016,6.978C257.096,343.349,250.671,339.558,247.101,329.748z M266.595,328.399l-4.576-12.572
        c-1.087-0.179-2.589-0.271-4.336,0.364c-3.553,1.293-4.177,4.841-2.125,10.479c1.991,5.469,4.523,7.867,7.624,6.738
        C265.325,332.628,266.216,330.516,266.595,328.399z"/>
    <path fill="#6A6A6A" d="M272.138,296.437l-1.662-4.567c-0.432-1.184,0.358-2.173,2.726-3.035l1.578-0.574
        c2.369-0.862,3.61-0.611,4.04,0.572l1.663,4.567c0.431,1.184-0.358,2.173-2.728,3.035l-1.578,0.575
        C273.81,297.872,272.568,297.621,272.138,296.437z M275.175,304.781c-0.432-1.184,0.358-2.173,2.726-3.035l1.578-0.574
        c2.369-0.862,3.609-0.611,4.041,0.572l9.501,26.104c0.431,1.184-0.359,2.174-2.728,3.036l-1.578,0.574
        c-2.368,0.862-3.608,0.61-4.04-0.573L275.175,304.781z"/>
    <path fill="#6A6A6A" d="M308.807,303.331l-0.677-1.861c-0.78-2.143-2.467-2.742-5.567-1.613c-4.116,1.498-5.884,4.185-6.561,4.431
        c-1.184,0.431-4.143-2.259-4.573-3.443c-0.697-1.917,3.094-5.532,9.353-7.81c8.907-3.242,13.558-0.465,15.549,5.003l3.857,10.6
        c2.114,5.807,3.221,6.745,3.651,7.929c0.493,1.354-4.248,3.589-5.657,4.103c-1.804,0.656-2.778-1.67-3.672-3.068
        c-0.128,0.876-1.541,5.412-6.728,7.3c-6.089,2.216-9.658-0.571-11.341-5.194C294.759,315.083,294.486,308.542,308.807,303.331z
            M308.145,317.298c2.142-0.779,3.617-3.041,3.781-5.399l-1.129-3.101c-5.356,1.95-7.359,4.338-6.374,7.044
        C304.936,317.253,306.283,317.976,308.145,317.298z"/>
    <path fill="#6A6A6A" d="M323.644,292.694l-0.902,0.329c-1.184,0.431-1.999-0.23-2.717-2.204l-0.35-0.958
        c-0.718-1.974-0.518-3.004,0.666-3.435l0.901-0.329l-1.217-5.623c-0.261-1.245,0.528-2.235,2.388-2.912l1.748-0.637
        c1.974-0.718,3.045-0.405,3.476,0.779l1.949,5.356l2.764-1.006c1.184-0.431,1.998,0.23,2.717,2.204l0.349,0.958
        c0.719,1.974,0.519,3.004-0.665,3.435l-2.763,1.006l5.212,14.32c0.615,1.691,1.446,2.219,2.912,1.686
        c0.507-0.185,1.102-0.656,1.44-0.78c1.128-0.411,3.062,2.972,3.226,3.422c0.944,2.594-2.659,4.097-4.407,4.733
        c-5.301,1.929-9.278,0.121-11.556-6.137L323.644,292.694z"/>
    <path fill="#6A6A6A" d="M337.089,272.796l-1.662-4.567c-0.431-1.184,0.358-2.173,2.727-3.036l1.578-0.574
        c2.368-0.862,3.609-0.611,4.04,0.573l1.662,4.567c0.431,1.184-0.358,2.174-2.728,3.036l-1.578,0.575
        C338.761,274.231,337.521,273.98,337.089,272.796z M340.126,281.141c-0.431-1.184,0.358-2.173,2.727-3.036l1.578-0.574
        c2.368-0.862,3.609-0.611,4.04,0.573l9.501,26.104c0.431,1.184-0.358,2.173-2.727,3.036l-1.578,0.574
        c-2.368,0.862-3.609,0.611-4.04-0.573L340.126,281.141z"/>
    <path fill="#6A6A6A" d="M367.028,268.922c8.965-3.263,15.594,0.39,19.164,10.2c3.571,9.81,0.861,16.926-8.104,20.188
        c-8.965,3.263-15.67-0.425-19.24-10.235S358.063,272.185,367.028,268.922z M377.735,282.201c-2.052-5.638-4.697-7.995-8.306-6.682
        c-3.608,1.313-4.177,4.84-2.124,10.478c2.052,5.638,4.774,8.031,8.383,6.718S379.787,287.838,377.735,282.201z"/>
    <path fill="#6A6A6A" d="M390.312,272.196c-2.052-5.638-3.159-6.575-3.569-7.703c-0.493-1.353,4.248-3.59,5.657-4.103
        c1.805-0.657,2.738,1.558,3.589,2.844c0.855-2.737,3.176-6.008,6.842-7.342c5.637-2.052,9.334-0.141,11.611,6.117l6.957,19.113
        c0.431,1.184-0.359,2.173-2.727,3.035l-1.579,0.575c-2.368,0.862-3.608,0.611-4.039-0.573l-6.505-17.873
        c-0.801-2.198-2.175-3.167-4.655-2.265c-2.312,0.842-3.115,3.369-3.319,4.913l6.586,18.098c0.432,1.184-0.357,2.173-2.725,3.035
        l-1.58,0.575c-2.367,0.862-3.608,0.611-4.039-0.573L390.312,272.196z"/>
    <path fill="#6A6A6A" d="M429.219,238.051c-0.575-1.579-0.145-2.501,1.435-3.077l11.84-4.309c5.018-1.827,13.952-3.418,17.912,7.463
        c3.961,10.881-5.316,15.918-8.361,17.026l-5.975,2.175l4.76,13.08c0.432,1.184-0.357,2.173-2.727,3.035l-1.917,0.698
        c-2.367,0.861-3.608,0.61-4.039-0.573L429.219,238.051z M448.378,248.061c2.142-0.78,4.597-2.631,3.119-6.69
        s-4.568-3.956-6.711-3.176l-5.018,1.827l3.592,9.866L448.378,248.061z"/>
    <path fill="#6A6A6A" d="M467.385,244.144c-2.052-5.638-3.159-6.575-3.569-7.703c-0.493-1.354,4.248-3.59,5.657-4.103
        c1.805-0.657,2.738,1.558,3.589,2.844c0.405-2.573,1.316-5.332,4.586-6.521c2.763-1.006,3.911,0.747,4.321,1.875
        c0.39,1.071,1.104,4.961-0.024,5.372c-0.789,0.287-1.686,0.103-2.813,0.513c-2.312,0.842-3.218,3.087-3.483,4.461l6.586,18.098
        c0.432,1.184-0.357,2.174-2.725,3.035l-1.58,0.575c-2.367,0.861-3.608,0.61-4.039-0.573L467.385,244.144z"/>
    <path fill="#6A6A6A" d="M496.816,221.684c8.964-3.263,15.594,0.39,19.164,10.2c3.57,9.811,0.86,16.926-8.104,20.188
        c-8.965,3.263-15.671-0.426-19.241-10.235C485.065,232.026,487.852,224.947,496.816,221.684z M507.522,234.961
        c-2.052-5.638-4.696-7.995-8.305-6.682s-4.177,4.84-2.125,10.479c2.052,5.638,4.775,8.03,8.383,6.717
        C509.085,244.163,509.575,240.599,507.522,234.961z"/>
    <path fill="#6A6A6A" d="M520.552,224.792c-2.052-5.638-3.16-6.575-3.57-7.703c-0.493-1.353,4.248-3.589,5.657-4.103
        c1.805-0.657,2.738,1.558,3.569,2.788c0.414-2.897,2.52-5.706,6.016-6.979c6.089-2.216,12.513,1.575,16.083,11.386
        c3.345,9.189,1.235,16.725-6.376,19.495c-2.65,0.965-4.895,0.76-6.387,0.346l4.042,11.106c0.431,1.185-0.358,2.174-2.726,3.035
        l-1.578,0.574c-2.368,0.862-3.608,0.612-4.039-0.573L520.552,224.792z M537.726,233.738c3.553-1.293,4.177-4.84,2.125-10.478
        c-1.991-5.469-4.524-7.867-7.625-6.739c-2.143,0.78-3.033,2.892-3.412,5.01l4.575,12.572
        C534.476,234.282,535.978,234.374,537.726,233.738z"/>
    <path fill="#6A6A6A" d="M561.204,198.249c8.963-3.263,15.594,0.39,19.164,10.2c3.57,9.81,0.859,16.925-8.104,20.188
        c-8.965,3.263-15.671-0.425-19.242-10.236C549.452,208.591,552.239,201.511,561.204,198.249z M571.911,211.527
        c-2.053-5.639-4.698-7.995-8.307-6.682s-4.177,4.84-2.125,10.478c2.053,5.638,4.775,8.031,8.384,6.718
        S573.963,217.165,571.911,211.527z"/>
    <path fill="#6A6A6A" d="M590.036,212.911c0.732-0.267,3.449,0.532,6.1-0.433c2.368-0.862,3.131-2.098,2.516-3.789
        c-1.806-4.961-12.014,2.075-15.688-8.018c-2.052-5.638,0.679-10.59,7.049-12.909c1.861-0.677,8.488-2.643,9.638,0.515
        c0.267,0.732,0.222,4.644-0.906,5.054c-0.563,0.205-2.686-0.363-5.224,0.561c-1.916,0.698-2.818,1.729-2.305,3.138
        c1.498,4.116,11.994-2.131,15.646,7.905c2.155,5.92-0.658,11.349-6.973,13.646c-4.904,1.786-10.338,2.295-11.322-0.412
        C588.156,217.042,588.853,213.341,590.036,212.911z"/>
    <path fill="#6A6A6A" d="M623.298,188.865l-0.678-1.86c-0.779-2.143-2.466-2.742-5.566-1.613c-4.116,1.498-5.884,4.185-6.561,4.431
        c-1.184,0.431-4.143-2.259-4.573-3.443c-0.698-1.917,3.095-5.531,9.353-7.81c8.908-3.242,13.559-0.465,15.549,5.003l3.857,10.6
        c2.113,5.807,3.222,6.745,3.652,7.928c0.492,1.354-4.248,3.59-5.658,4.103c-1.804,0.657-2.779-1.67-3.671-3.068
        c-0.128,0.876-1.542,5.413-6.729,7.301c-6.089,2.216-9.657-0.571-11.341-5.194C609.251,200.618,608.978,194.077,623.298,188.865z
            M622.636,202.833c2.143-0.78,3.618-3.041,3.781-5.399l-1.129-3.101c-5.356,1.949-7.359,4.338-6.374,7.044
        C619.427,202.788,620.774,203.51,622.636,202.833z"/>
    <path fill="#6A6A6A" d="M630.861,160.7c-0.431-1.184,0.357-2.173,2.726-3.036l1.579-0.574c2.367-0.862,3.608-0.611,4.038,0.573
        l11.697,32.136c0.615,1.691,1.447,2.219,2.912,1.686c0.508-0.185,1.102-0.656,1.44-0.779c1.128-0.411,3.061,2.973,3.225,3.423
        c0.944,2.594-2.659,4.097-4.407,4.733c-5.299,1.929-9.276,0.12-11.555-6.138L630.861,160.7z"/>
    <path fill="#6A6A6A" d="M660.795,187.156c0.732-0.266,3.45,0.532,6.101-0.432c2.367-0.862,3.13-2.098,2.515-3.789
        c-1.806-4.961-12.015,2.075-15.688-8.018c-2.052-5.638,0.679-10.59,7.049-12.909c1.861-0.677,8.488-2.643,9.638,0.515
        c0.267,0.732,0.222,4.644-0.906,5.054c-0.563,0.205-2.686-0.363-5.223,0.561c-1.918,0.698-2.819,1.729-2.307,3.138
        c1.498,4.116,11.994-2.131,15.647,7.905c2.154,5.92-0.658,11.349-6.973,13.646c-4.905,1.785-10.338,2.295-11.322-0.412
        C658.915,191.289,659.611,187.587,660.795,187.156z"/>
</g>
<rect x="180.801" y="330.782" transform="matrix(0.9397 -0.342 0.342 0.9397 -87.5212 175.2533)" fill="#6A6A6A" width="544.781" height="10.043"/>
<rect x="193.231" y="368.603" transform="matrix(0.9397 -0.342 0.342 0.9397 -100.9638 174.6592)" fill="#6A6A6A" width="503.113" height="10.047"/>
<rect x="203.897" y="393.669" transform="matrix(0.9397 -0.342 0.342 0.9397 -107.8708 185.6168)" fill="#6A6A6A" width="537.021" height="10.046"/>
<rect x="215.234" y="425.835" transform="matrix(0.9397 -0.342 0.342 0.9397 -118.4418 189.9954)" fill="#6A6A6A" width="528.613" height="10.047"/>
<rect x="227.538" y="460.183" transform="matrix(0.9397 -0.342 0.342 0.9397 -130.0623 192.7923)" fill="#6A6A6A" width="508.241" height="10.045"/>

<rect x="238.776" y="491.787" transform="matrix(0.9397 -0.342 0.342 0.9397 -140.3482 197.6646)" fill="#6A6A6A" width="503.114" height="10.047"/>
<rect x="249.586" y="517.669" transform="matrix(0.9397 -0.342 0.342 0.9397 -147.6707 207.9045)" fill="#6A6A6A" width="532.243" height="10.048"/>
<rect x="260.779" y="549.019" transform="matrix(0.9397 -0.342 0.342 0.9397 -157.827 213.0024)" fill="#6A6A6A" width="528.614" height="10.047"/>
<rect x="274.107" y="589.183" transform="matrix(0.9397 -0.342 0.342 0.9397 -172.4001 210.6869)" fill="#6A6A6A" width="474.241" height="10.044"/>
<g>
    <path fill="#6A6A6A" d="M334.046,794.494c0.488-0.178,2.301,0.355,4.065-0.287c1.579-0.575,2.089-1.398,1.678-2.527
        c-1.204-3.307-8.009,1.383-10.457-5.344c-1.368-3.759,0.452-7.059,4.698-8.604c1.241-0.452,5.658-1.763,6.424,0.342
        c0.178,0.488,0.148,3.096-0.604,3.369c-0.375,0.137-1.791-0.242-3.482,0.373c-1.277,0.465-1.878,1.152-1.536,2.092
        c0.999,2.744,7.995-1.42,10.431,5.27c1.436,3.946-0.439,7.564-4.648,9.097c-3.27,1.19-6.891,1.529-7.548-0.274
        C332.793,797.248,333.257,794.781,334.046,794.494z"/>
    <path fill="#6A6A6A" d="M341.735,770.244l-1.107-3.043c-0.287-0.789,0.238-1.449,1.816-2.023l1.053-0.383
        c1.578-0.574,2.405-0.406,2.693,0.383l1.107,3.043c0.287,0.789-0.238,1.449-1.817,2.023l-1.053,0.383
        C342.85,771.201,342.022,771.033,341.735,770.244z M343.761,775.807c-0.288-0.789,0.238-1.449,1.816-2.023l1.053-0.383
        c1.578-0.574,2.405-0.406,2.692,0.383l6.333,17.4c0.287,0.789-0.238,1.449-1.817,2.023l-1.053,0.383
        c-1.578,0.574-2.405,0.406-2.692-0.383L343.761,775.807z"/>
    <path fill="#6A6A6A" d="M361.995,788.365l-0.017-0.164c-1.245-0.145-2.19-0.99-2.643-2.231c-0.465-1.277-0.035-2.669,1.12-3.94
        c-2.211-0.343-4.07-1.709-5.082-4.491c-1.765-4.848,1.173-8.001,5.645-9.629c1.015-0.37,2.033-0.614,3.004-0.753l6.049-2.203
        c0.79-0.287,1.334,0.154,1.812,1.469l0.232,0.639c0.451,1.24,0.342,1.877-0.259,2.096c-0.264,0.096-1.305,0.389-1.671,0.438
        l-0.021,0.178c0.503,0.328,1.106,1.172,1.367,1.885c1.71,4.698-0.961,7.883-5.245,9.443c-1.541,0.561-2.17,1.172-1.923,1.85
        c0.93,2.555,11.305-4.371,13.999,3.033c1.409,3.87-1.546,7.797-7.37,9.918c-6.051,2.201-9.588,1.488-10.833-1.932
        C359.45,792.014,360.092,790.037,361.995,788.365z M369.807,791.352c2.593-0.943,3.611-2.123,3.201-3.25
        c-0.425-1.164-2.078-1.031-6.472,0.228c-1.152,0.929-1.564,2.017-1.291,2.769C365.614,792.111,367.026,792.363,369.807,791.352z
            M366.271,773.572c-0.684-1.879-2.248-2.203-3.79-1.643c-1.54,0.561-2.531,1.814-1.847,3.693c0.684,1.879,2.235,2.166,3.775,1.605
        C365.952,776.668,366.955,775.449,366.271,773.572z"/>
    <path fill="#6A6A6A" d="M376.353,770.158c-1.367-3.758-2.105-4.383-2.379-5.136c-0.328-0.901,2.832-2.392,3.771-2.733
        c1.203-0.438,1.825,1.037,2.394,1.895c0.569-1.824,2.117-4.004,4.561-4.893c3.758-1.369,6.222-0.096,7.74,4.076l4.637,12.74
        c0.287,0.789-0.239,1.449-1.818,2.023l-1.052,0.383c-1.578,0.574-2.405,0.407-2.692-0.382l-4.336-11.913
        c-0.533-1.466-1.449-2.111-3.104-1.51c-1.541,0.561-2.076,2.246-2.213,3.273l4.391,12.064c0.287,0.789-0.238,1.449-1.816,2.023
        l-1.053,0.383c-1.579,0.575-2.406,0.407-2.693-0.382L376.353,770.158z"/>
    <path fill="#6A6A6A" d="M403.154,752.572c5.899-2.146,9.745,1.518,11.646,6.742c0.232,0.639-0.622,2.736-1.11,2.914l-9.583,3.488
        c1.357,2.91,3.315,3.262,5.757,2.373c2.369-0.861,3.598-2.629,4.125-2.82c0.826-0.301,2.72,1.395,2.992,2.145
        c0.685,1.879-3.675,4.402-5.779,5.168c-6.803,2.477-11.244-0.375-13.447-6.426C395.061,758.752,397.779,754.529,403.154,752.572z
            M408.841,759.78c-0.793-2.18-2.208-3.495-4.087-2.812c-1.578,0.575-2.604,1.97-2.001,5.027L408.841,759.78z"/>
    <path fill="#6A6A6A" d="M417.96,758.633c-2.23-6.127-0.823-11.148,4.25-12.996c1.767-0.643,3.263-0.508,4.257-0.23l-3.036-8.342
        c-0.287-0.789,0.239-1.451,1.818-2.025l1.051-0.383c1.578-0.574,2.405-0.406,2.693,0.383l7.468,20.52
        c1.409,3.871,2.147,4.496,2.435,5.285c0.328,0.901-2.832,2.392-3.771,2.734c-1.202,0.438-1.852-1.115-2.433-2.008
        c-0.277,1.93-1.681,3.803-4.011,4.65C424.622,767.697,420.34,765.172,417.96,758.633z M430.954,757.732l-3.051-8.381
        c-0.725-0.119-1.726-0.18-2.89,0.244c-2.368,0.861-2.784,3.227-1.417,6.984c1.327,3.645,3.016,5.244,5.082,4.492
        C430.107,760.553,430.701,759.145,430.954,757.732z"/>
    <path fill="#6A6A6A" d="M436.543,745.953l-1.259-3.457c-0.287-0.789,0.238-1.45,1.817-2.025l1.203-0.438
        c1.578-0.574,2.405-0.406,2.692,0.383l1.259,3.457c0.287,0.79-0.239,1.449-1.817,2.023l-1.203,0.438
        C437.657,746.908,436.83,746.742,436.543,745.953z M440.359,756.438c-0.288-0.789,0.238-1.449,1.816-2.023l1.203-0.438
        c1.578-0.575,2.405-0.407,2.692,0.382l1.259,3.459c0.287,0.789-0.238,1.449-1.816,2.023l-1.203,0.438
        c-1.579,0.574-2.405,0.406-2.692-0.383L440.359,756.438z"/>
</g>

<!-- signatures -->
<!-- left -->
<g class="signature one">
    <path fill="none" stroke="transparent" stroke-width="5" stroke-linecap="round" stroke-miterlimit="10" d="M371.546,879.752
        c0,0,5.436-23.778,19.737-37.311c14.301-13.531,24.188-5.871,24.694,0.562c0.508,6.431-0.689,49.265-15.605,70.656
        c-14.917,21.391-28.59,11.115-14.102-10.477c14.49-21.591,31.484-38.619,40.002-32.574c8.519,6.047,1.532,28.275-3.295,25.244
        c-4.828-3.031,8.438-26.256,18.259-25.854c9.205,0.387,9.11,14.26,3.941,14.364c-3.64-0.081,4.954-22.854,16.924-22.142
        c6.948,0.412,8.112,12.357,4.651,12.271c-3.462-0.088,0.848-11.457,12.975-10.787s9.1-11.336,16.25-6.834
        c8.822,5.73,18.022-1.967,29.269-26.084"/>
    <line fill="none" stroke="transparent" stroke-width="7" stroke-miterlimit="10" x1="389.632" y1="952.686" x2="406.774" y2="946.445"/>
    <line fill="none" stroke="transparent" stroke-width="7" stroke-miterlimit="10" x1="424.05" y1="940.225" x2="441.192" y2="933.984"/>
    <line fill="none" stroke="transparent" stroke-width="7" stroke-miterlimit="10" x1="458.454" y1="927.725" x2="551.243" y2="893.951"/>
</g>
<!-- right -->
<g class="signature two">
    <path fill="none" stroke="transparent" stroke-width="5" stroke-linecap="round" stroke-miterlimit="10" d="M624.784,821.826
        c0,0,71.027-35.832,51.771-88.739c-12.023-33.034-15.828,70.54,18.043,58.212c17.812-6.482,15.708-32.363,8.412-52.41
        c-5.03-13.82-9.318,52.609,22.278,41.109c0,0,11.138-3.389,6.948-14.9c-4.189-11.511-9.24,16.4,15.701,7.322
        c0,0,17.726-6.852,13.108-19.537c-4.175-11.471-12.898,41.676,17.793,4.299c0,0,6.267-8.001,14.918-3.967"/>
    <line fill="none" stroke="transparent" stroke-width="7" stroke-miterlimit="10" x1="638.705" y1="862.504" x2="672.845" y2="850.078"/>
    <line fill="none" stroke="transparent" stroke-width="7" stroke-miterlimit="10" x1="691.077" y1="843.51" x2="708.22" y2="837.27"/>
    <line fill="none" stroke="transparent" stroke-width="7" stroke-miterlimit="10" x1="725.731" y1="830.918" x2="800.316" y2="803.771"/>
</g>
<!-- stamp -->
<filter id="blur">
    <feGaussianBlur in="SourceGraphic" stdDeviation="1,2" />
</filter>
<g class="stamp three">
    <path fill="transparent" d="M771.582,616.809c-0.789-0.703-1.616-2.123-1.84-3.154l-8.813-40.604c-0.225-1.031,0.34-2.311,1.253-2.842
        l8.695-5.061c0.913-0.531,2.313-0.4,3.11,0.29l43.177,37.38c0.799,0.691,0.705,1.691-0.208,2.223l-3.208,1.867
        c-0.913,0.531-2.307,0.393-3.098-0.307l-34.533-30.607c-0.792-0.701-1.691-1.127-1.998-0.947c-0.308,0.18-0.376,1.17-0.15,2.201
        l9.786,45.019c0.223,1.032-0.189,2.22-0.914,2.641c-0.724,0.421-1.963,0.192-2.75-0.511L771.582,616.809z"/>
    <path fill="transparent" d="M821.278,606.451c0.661,0.59,0.454,1.506-0.458,2.037l-43.165,25.141c-0.911,0.529-2.3,0.389-3.088-0.316
        l-34.308-30.748c-0.783-0.705-1.679-1.135-1.988-0.955c-0.307,0.18-0.343,1.162-0.078,2.184l11.985,46.281
        c0.264,1.025-0.266,2.297-1.18,2.826l-6.756,3.934c-0.912,0.531-1.869,0.127-2.129-0.896l-14.295-56.734
        c-0.258-1.023,0.276-2.297,1.19-2.827l8.845-5.147c0.912-0.531,2.302-0.387,3.087,0.318l39.809,35.791
        c0.786,0.705,2.175,0.848,3.087,0.316l36.581-21.307C819.331,605.816,820.616,605.863,821.278,606.451z"/>
    <path fill="transparent" d="M759.528,623.826c-0.786-0.706-2.177-0.849-3.088-0.316l-7.156,4.162c-0.914,0.533-1.443,1.803-1.178,2.826
        l2.812,10.846c0.267,1.022,1.229,1.424,2.142,0.895l14.711-8.562c0.915-0.532,1.018-1.543,0.231-2.248L759.528,623.826z"/>
    <path fill="transparent" d="M741.226,668.527c-7.452-3.332-13.395-8.529-19.259-14.298c-1.468-1.442-2.861-2.962-4.187-4.546
        c-1.332-1.576-2.592-3.219-3.769-4.926c-1.274-1.852-2.92-3.506-4.001-5.488c-0.911-1.674-1.287-3.661-2.042-5.418
        c-3.3-7.676-5.041-16.111-4.88-24.559c0.132-8.445,0.929-16.787,4.52-24.4c1.801-3.807,5.174-7.496,7.695-10.847
        c2.528-3.343,5.383-6.425,8.504-9.185c3.123-2.752,6.483-5.221,10.051-7.32c3.552-2.123,8.68-4.709,12.549-6.127
        c3.631-1.346,7.528-2.471,11.007-2.992c3.93-0.586,7.452-0.473,11.831-0.408c2.062,0.022,4.125,0.15,6.18,0.381
        c2.054,0.215,4.101,0.527,6.13,0.941c4.054,0.842,7.127,2.568,10.973,4.164c5.174,2.135,10.303,4.223,14.779,7.668
        c2.172,1.67,4.503,3.951,6.433,5.914c2.773,2.799,5.271,5.875,7.463,9.16c2.491,3.734,4.589,7.742,6.248,11.925
        c3.129,7.86,5.149,16.097,4.995,24.595c-0.126,8.502-2.072,16.977-5.563,24.721c-1.82,4.027-3.334,8.064-5.949,11.627
        c-2.408,3.285-5.326,7.061-8.328,9.801c-1.563,1.431-3.207,2.767-4.905,4.025c-1.711,1.244-3.479,2.398-5.297,3.464
        c-3.63,2.147-9.604,4.47-13.566,5.812c-3.968,1.33-7.863,1.515-11.976,2.043c-2.061,0.264-3.665,0.156-5.73,0.218
        c-2.064,0.069-4.129,0.048-6.182-0.083C756.729,673.877,748.675,671.873,741.226,668.527z M742.365,667.504
        c3.152,1.402,5.894,1.594,9.239,2.403c4.514,1.089,9.686,2.55,14.304,2.493c8.047-0.049,15.724-2.336,22.968-5.492
        c3.631-1.568,7.344-3.049,10.598-5.232c1.624-1.1,3.19-2.277,4.694-3.525c1.514-1.232,2.961-2.545,4.348-3.912
        c2.428-2.379,3.917-5.15,5.911-7.893c2.574-3.547,5.498-7.172,7.254-11.186c1.527-3.451,1.238-6.174,1.99-9.778
        c0.797-3.812,2.595-8.511,2.744-12.499c0.134-3.693,0.945-7.997,0.502-11.721c-0.489-4.104-2.302-7.621-3.713-11.461
        c-1.397-3.799-2.725-7.719-4.856-11.172c-2.334-3.781-6.348-8.432-9.447-11.643c-4.988-5.166-10.082-8.109-16.641-11.258
        c-7.153-3.451-15.049-5.517-23.062-5.807c-4.173-0.166-8.101,0.584-12.219,1.318c-3.783,0.676-7.768,1.266-11.338,2.684
        c-3.723,1.49-7.02,3.824-10.351,6.029c-3.315,2.229-6.606,5.494-9.386,8.334c-5.574,5.664-10.023,11.201-13.046,18.439
        c-3.042,7.235-4.765,14.975-5.047,22.791c-0.069,1.953,0.677,4.104,0.776,6.061c0.307,5.869,0.657,11.527,2.551,17.158
        c1.359,4.051,3.599,7.727,5.791,11.447c1.865,3.164,3.568,6.437,6.028,9.205C728.269,659.34,734.959,664.224,742.365,667.504z"/>
</g>
</svg>