<!-- signpost -->
<svg class="signpost" version="1.1" xmlns="http://www.w3.org/2000/svg" xmlns:xlink="http://www.w3.org/1999/xlink" x="0px" y="0px"
width="1096.367px" height="986.98px" viewBox="0 0 1096.367 986.98" enable-background="new 0 0 1096.367 986.98"
xml:space="preserve">

<!-- gradient added with jquery -->

<!-- pole -->
<path class="pole" fill="url(#grey-gradient);" d="M512.986,986.98h-55.997l0.001-819.472c-4.577-2.535-7.31-5.707-7.343-9.149c0-0.021,0-6.292,0-6.313
    c0-8.353,15.894-15.125,35.5-15.125s35.5,6.772,35.5,15.125c0,0.037,0,6.324-0.001,6.36c-0.059,3.503-2.912,6.723-7.657,9.274
    L512.986,986.98z"/>

<!-- green sign -->
<g class="one">
    <path fill="#C7E6B6" d="M784.955,0.807c0.964,0.947,47.684,45.738,49.438,47.363s1.604,3.434,0.033,6.529
        s-36.905,75.888-37.489,77.097s-1.459,2.584-3.209,3.667S513.231,292.671,510.564,294.129c-1.084-0.708-3.542-1.75-6.667-1.958
        c0-0.781,0.062-120.833,0.062-120.833S778.467,2.011,780.433,0.81S783.991-0.14,784.955,0.807z"/>
    <polygon fill="#70BF44" points="768.498,72.734 768.498,121.765 745.564,134.652 745.47,93.978 722.44,106.607 722.418,147.65 
        698.963,160.841 698.963,100.146 733.508,50.67 "/>
</g>


<!-- orange sign -->
<g class="two">
    <path fill="#F9CBAE" d="M59.177,157.667c-1.571,1.086-56.27,41.953-57.913,43.474c-1.755,1.625-1.604,3.434-0.033,6.529
        s45.883,91.572,46.791,93.333s3.36,3.809,5.587,4.425s403.6,117.159,406.152,118.554c1.084-0.708,3.542-1.75,6.667-1.958
        c0-0.781-0.062-129.833-0.062-129.833S67.114,157.863,64.526,157.017S60.748,156.582,59.177,157.667z"/>
    <g>
        <path fill="#F07F37" d="M105.35,205.799c0-8.363,6.78-13.348,15.147-11.133c8.364,2.218,15.146,10.796,15.146,19.16
            c0,8.366-6.782,13.35-15.146,11.133C112.13,222.743,105.35,214.166,105.35,205.799z"/>
        <path fill="none" stroke="#70BF44" stroke-miterlimit="10" d="M90.95,253.114"/>
        <path fill="#F07F37" d="M104.529,260.892c0,0-9.93,7.199-12.281,8.926c-2.351,1.728-2.388,7.165,0,10.372
            c2.387,3.206,14.683,19.336,16.339,21.564c1.657,2.229,5.2,3.452,7.985,1.424c2.786-2.028,2.991-5.623,1.386-7.616
            c-1.604-1.992-10.072-12.891-10.072-12.891l8.729-6.566L104.529,260.892z"/>
        <path fill="#F07F37" d="M136.534,263.319v-11.631c0,0,11.938,15.175,13.579,17.102c1.643,1.929,5.037,2.642,6.939,1.168
            c1.902-1.473,1.642-4.712,0.15-6.601c-1.493-1.887-18.952-24.122-20.52-26.104c-1.566-1.983-3.618-4.093-6.416-4.834l-19.47-5.158
            c-2.798-0.741-4.85,0.281-6.416,1.434c-1.567,1.152-19.027,14.133-20.52,15.23c-1.492,1.097-1.752,4.2,0.15,6.68
            c1.903,2.481,5.297,3.567,6.939,2.509c1.642-1.058,13.579-9.906,13.579-9.906v11.639L136.534,263.319z"/>
        <path fill="#F07F37" d="M124.447,278.181l8.729,11.192c0,0-7.646,5.786-9.251,6.929c-1.604,1.142-2.272,4.584-0.057,7.504
            c2.215,2.92,6.123,2.761,7.372,1.787c1.25-0.972,13.426-10.526,15.813-12.467c2.842-2.457,3.062-6.553,0-10.371
            c-2.35-2.974-10.52-13.382-10.52-13.382L124.447,278.181z"/>
    </g>
</g>


<!-- red sign -->
<g class="three">
    <path fill="#F5B8B3" d="M1028.018,287.158c1.591,1.159,63.561,47.525,66.255,49.575c2.875,2.188,2.5,4.041,0.625,6.958
    s-54.291,84.374-55.791,86.75s-2.963,3.701-5.731,4.31S513.229,552.02,510.667,553.42c-1.084-0.709-3.542-1.75-6.667-1.959
    c0-0.781,0.062-129.833,0.062-129.833s516.407-134.579,518.539-135.175S1026.427,285.999,1028.018,287.158z"/>
    <path fill="#E74E38" d="M998.005,347.98c-8.561,1.819-20.581,4.375-20.581,4.375s2.004-13.54-5.1-12.03
    c-3.552,0.755-4.801,5.149-4.781,8.803c0.042,8.1,5.691,18.93,5.691,22.695l15.571-3.31v10.108l-14.935,3.174
    c0,0-0.706,18.617-8.651,26.975c14.389,5.523,16.302-10.295,16.302-10.295l19.032-4.137c0,0,3.097,28.939-21.4,34.147
    c-9.016,1.916-17.576-1.729-23.496-0.47c-5.92,1.258-8.446,4.913-11.94,5.655c0-4.712,0.01-13.499,0.01-20.148
    c14.662-6.485,9.836-27.409,9.836-27.409l-11.11,2.362V378.24l8.833-1.877c0,0-7.921-9.118-7.921-22.141
    c0-13.023,8.379-30.013,28.869-34.368C992.724,315.498,1001.466,332.31,998.005,347.98z"/>
</g>
</svg>