<svg version="1.1" xmlns="http://www.w3.org/2000/svg" xmlns:xlink="http://www.w3.org/1999/xlink" x="0px" y="0px"
	 width="1060.023px" height="1198.795px" viewBox="0 0 1060.023 1198.795" enable-background="new 0 0 1060.023 1198.795"
	 xml:space="preserve">
<rect x="210.279" y="138.46" transform="matrix(0.9397 -0.342 0.342 0.9397 -152.7684 213.0104)" fill="#FFF9DC" width="634.707" height="802.477"/>
<g>
	<path fill="#6A6A6A" d="M162.333,334.551c-0.431-1.185,0.359-2.173,2.727-3.035l2.988-1.088c1.635-0.595,3.075-0.672,4.105,0.229
		l16.346,14.035l3.613-21.299c0.209-1.354,1.363-2.22,2.998-2.815l2.932-1.066c2.367-0.862,3.608-0.612,4.039,0.572l13.133,36.083
		c0.432,1.184-0.357,2.173-2.727,3.035l-1.634,0.595c-2.368,0.862-3.609,0.611-4.04-0.573l-8.496-23.341l-0.245,0.026l-2.86,17.577
		c-0.262,0.862-0.794,1.502-1.865,1.893l-1.635,0.595c-1.071,0.39-1.892,0.242-2.645-0.25l-13.49-11.626l-0.206,0.139l8.495,23.341
		c0.432,1.184-0.357,2.174-2.725,3.036l-1.636,0.595c-2.368,0.861-3.608,0.61-4.04-0.573L162.333,334.551z"/>
	<path fill="#6A6A6A" d="M224.894,320.656c8.85-3.222,14.619,2.276,17.471,10.113c0.35,0.959-0.931,4.106-1.664,4.373l-14.377,5.232
		c2.036,4.367,4.974,4.894,8.639,3.56c3.552-1.292,5.396-3.943,6.186-4.231c1.24-0.451,4.08,2.091,4.49,3.218
		c1.026,2.819-5.513,6.604-8.67,7.752c-10.205,3.715-16.87-0.563-20.174-9.641C212.751,329.927,216.83,323.59,224.894,320.656z
		 M233.425,331.469c-1.189-3.27-3.312-5.243-6.131-4.217c-2.368,0.862-3.904,2.954-3.002,7.542L233.425,331.469z"/>
	<path fill="#6A6A6A" d="M247.101,329.748c-3.345-9.189-1.234-16.726,6.377-19.496c2.648-0.964,4.895-0.76,6.387-0.345
		l-4.557-12.517c-0.43-1.184,0.358-2.173,2.728-3.035l1.578-0.575c2.367-0.862,3.608-0.611,4.039,0.573l11.204,30.783
		c2.113,5.808,3.221,6.745,3.652,7.929c0.492,1.354-4.248,3.59-5.658,4.103c-1.805,0.657-2.779-1.67-3.65-3.013
		c-0.414,2.896-2.521,5.706-6.016,6.978C257.096,343.349,250.671,339.558,247.101,329.748z M266.595,328.399l-4.576-12.572
		c-1.087-0.179-2.589-0.271-4.336,0.364c-3.553,1.293-4.177,4.841-2.125,10.479c1.991,5.469,4.523,7.867,7.624,6.738
		C265.325,332.628,266.216,330.516,266.595,328.399z"/>
	<path fill="#6A6A6A" d="M272.138,296.437l-1.662-4.567c-0.432-1.184,0.358-2.173,2.726-3.035l1.578-0.574
		c2.369-0.862,3.61-0.611,4.04,0.572l1.663,4.567c0.431,1.184-0.358,2.173-2.728,3.035l-1.578,0.575
		C273.81,297.872,272.568,297.621,272.138,296.437z M275.175,304.781c-0.432-1.184,0.358-2.173,2.726-3.035l1.578-0.574
		c2.369-0.862,3.609-0.611,4.041,0.572l9.501,26.104c0.431,1.184-0.359,2.174-2.728,3.036l-1.578,0.574
		c-2.368,0.862-3.608,0.61-4.04-0.573L275.175,304.781z"/>
	<path fill="#6A6A6A" d="M308.807,303.331l-0.677-1.861c-0.78-2.143-2.467-2.742-5.567-1.613c-4.116,1.498-5.884,4.185-6.561,4.431
		c-1.184,0.431-4.143-2.259-4.573-3.443c-0.697-1.917,3.094-5.532,9.353-7.81c8.907-3.242,13.558-0.465,15.549,5.003l3.857,10.6
		c2.114,5.807,3.221,6.745,3.651,7.929c0.493,1.354-4.248,3.589-5.657,4.103c-1.804,0.656-2.778-1.67-3.672-3.068
		c-0.128,0.876-1.541,5.412-6.728,7.3c-6.089,2.216-9.658-0.571-11.341-5.194C294.759,315.083,294.486,308.542,308.807,303.331z
		 M308.145,317.298c2.142-0.779,3.617-3.041,3.781-5.399l-1.129-3.101c-5.356,1.95-7.359,4.338-6.374,7.044
		C304.936,317.253,306.283,317.976,308.145,317.298z"/>
	<path fill="#6A6A6A" d="M323.644,292.694l-0.902,0.329c-1.184,0.431-1.999-0.23-2.717-2.204l-0.35-0.958
		c-0.718-1.974-0.518-3.004,0.666-3.435l0.901-0.329l-1.217-5.623c-0.261-1.245,0.528-2.235,2.388-2.912l1.748-0.637
		c1.974-0.718,3.045-0.405,3.476,0.779l1.949,5.356l2.764-1.006c1.184-0.431,1.998,0.23,2.717,2.204l0.349,0.958
		c0.719,1.974,0.519,3.004-0.665,3.435l-2.763,1.006l5.212,14.32c0.615,1.691,1.446,2.219,2.912,1.686
		c0.507-0.185,1.102-0.656,1.44-0.78c1.128-0.411,3.062,2.972,3.226,3.422c0.944,2.594-2.659,4.097-4.407,4.733
		c-5.301,1.929-9.278,0.121-11.556-6.137L323.644,292.694z"/>
	<path fill="#6A6A6A" d="M337.089,272.796l-1.662-4.567c-0.431-1.184,0.358-2.173,2.727-3.036l1.578-0.574
		c2.368-0.862,3.609-0.611,4.04,0.573l1.662,4.567c0.431,1.184-0.358,2.174-2.728,3.036l-1.578,0.575
		C338.761,274.231,337.521,273.98,337.089,272.796z M340.126,281.141c-0.431-1.184,0.358-2.173,2.727-3.036l1.578-0.574
		c2.368-0.862,3.609-0.611,4.04,0.573l9.501,26.104c0.431,1.184-0.358,2.173-2.727,3.036l-1.578,0.574
		c-2.368,0.862-3.609,0.611-4.04-0.573L340.126,281.141z"/>
	<path fill="#6A6A6A" d="M367.028,268.922c8.965-3.263,15.594,0.39,19.164,10.2c3.571,9.81,0.861,16.926-8.104,20.188
		c-8.965,3.263-15.67-0.425-19.24-10.235S358.063,272.185,367.028,268.922z M377.735,282.201c-2.052-5.638-4.697-7.995-8.306-6.682
		c-3.608,1.313-4.177,4.84-2.124,10.478c2.052,5.638,4.774,8.031,8.383,6.718S379.787,287.838,377.735,282.201z"/>
	<path fill="#6A6A6A" d="M390.312,272.196c-2.052-5.638-3.159-6.575-3.569-7.703c-0.493-1.353,4.248-3.59,5.657-4.103
		c1.805-0.657,2.738,1.558,3.589,2.844c0.855-2.737,3.176-6.008,6.842-7.342c5.637-2.052,9.334-0.141,11.611,6.117l6.957,19.113
		c0.431,1.184-0.359,2.173-2.727,3.035l-1.579,0.575c-2.368,0.862-3.608,0.611-4.039-0.573l-6.505-17.873
		c-0.801-2.198-2.175-3.167-4.655-2.265c-2.312,0.842-3.115,3.369-3.319,4.913l6.586,18.098c0.432,1.184-0.357,2.173-2.725,3.035
		l-1.58,0.575c-2.367,0.862-3.608,0.611-4.039-0.573L390.312,272.196z"/>
	<path fill="#6A6A6A" d="M429.219,238.051c-0.575-1.579-0.145-2.501,1.435-3.077l11.84-4.309c5.018-1.827,13.952-3.418,17.912,7.463
		c3.961,10.881-5.316,15.918-8.361,17.026l-5.975,2.175l4.76,13.08c0.432,1.184-0.357,2.173-2.727,3.035l-1.917,0.698
		c-2.367,0.861-3.608,0.61-4.039-0.573L429.219,238.051z M448.378,248.061c2.142-0.78,4.597-2.631,3.119-6.69
		s-4.568-3.956-6.711-3.176l-5.018,1.827l3.592,9.866L448.378,248.061z"/>
	<path fill="#6A6A6A" d="M467.385,244.144c-2.052-5.638-3.159-6.575-3.569-7.703c-0.493-1.354,4.248-3.59,5.657-4.103
		c1.805-0.657,2.738,1.558,3.589,2.844c0.405-2.573,1.316-5.332,4.586-6.521c2.763-1.006,3.911,0.747,4.321,1.875
		c0.39,1.071,1.104,4.961-0.024,5.372c-0.789,0.287-1.686,0.103-2.813,0.513c-2.312,0.842-3.218,3.087-3.483,4.461l6.586,18.098
		c0.432,1.184-0.357,2.174-2.725,3.035l-1.58,0.575c-2.367,0.861-3.608,0.61-4.039-0.573L467.385,244.144z"/>
	<path fill="#6A6A6A" d="M496.816,221.684c8.964-3.263,15.594,0.39,19.164,10.2c3.57,9.811,0.86,16.926-8.104,20.188
		c-8.965,3.263-15.671-0.426-19.241-10.235C485.065,232.026,487.852,224.947,496.816,221.684z M507.522,234.961
		c-2.052-5.638-4.696-7.995-8.305-6.682s-4.177,4.84-2.125,10.479c2.052,5.638,4.775,8.03,8.383,6.717
		C509.085,244.163,509.575,240.599,507.522,234.961z"/>
	<path fill="#6A6A6A" d="M520.552,224.792c-2.052-5.638-3.16-6.575-3.57-7.703c-0.493-1.353,4.248-3.589,5.657-4.103
		c1.805-0.657,2.738,1.558,3.569,2.788c0.414-2.897,2.52-5.706,6.016-6.979c6.089-2.216,12.513,1.575,16.083,11.386
		c3.345,9.189,1.235,16.725-6.376,19.495c-2.65,0.965-4.895,0.76-6.387,0.346l4.042,11.106c0.431,1.185-0.358,2.174-2.726,3.035
		l-1.578,0.574c-2.368,0.862-3.608,0.612-4.039-0.573L520.552,224.792z M537.726,233.738c3.553-1.293,4.177-4.84,2.125-10.478
		c-1.991-5.469-4.524-7.867-7.625-6.739c-2.143,0.78-3.033,2.892-3.412,5.01l4.575,12.572
		C534.476,234.282,535.978,234.374,537.726,233.738z"/>
	<path fill="#6A6A6A" d="M561.204,198.249c8.963-3.263,15.594,0.39,19.164,10.2c3.57,9.81,0.859,16.925-8.104,20.188
		c-8.965,3.263-15.671-0.425-19.242-10.236C549.452,208.591,552.239,201.511,561.204,198.249z M571.911,211.527
		c-2.053-5.639-4.698-7.995-8.307-6.682s-4.177,4.84-2.125,10.478c2.053,5.638,4.775,8.031,8.384,6.718
		S573.963,217.165,571.911,211.527z"/>
	<path fill="#6A6A6A" d="M590.036,212.911c0.732-0.267,3.449,0.532,6.1-0.433c2.368-0.862,3.131-2.098,2.516-3.789
		c-1.806-4.961-12.014,2.075-15.688-8.018c-2.052-5.638,0.679-10.59,7.049-12.909c1.861-0.677,8.488-2.643,9.638,0.515
		c0.267,0.732,0.222,4.644-0.906,5.054c-0.563,0.205-2.686-0.363-5.224,0.561c-1.916,0.698-2.818,1.729-2.305,3.138
		c1.498,4.116,11.994-2.131,15.646,7.905c2.155,5.92-0.658,11.349-6.973,13.646c-4.904,1.786-10.338,2.295-11.322-0.412
		C588.156,217.042,588.853,213.341,590.036,212.911z"/>
	<path fill="#6A6A6A" d="M623.298,188.865l-0.678-1.86c-0.779-2.143-2.466-2.742-5.566-1.613c-4.116,1.498-5.884,4.185-6.561,4.431
		c-1.184,0.431-4.143-2.259-4.573-3.443c-0.698-1.917,3.095-5.531,9.353-7.81c8.908-3.242,13.559-0.465,15.549,5.003l3.857,10.6
		c2.113,5.807,3.222,6.745,3.652,7.928c0.492,1.354-4.248,3.59-5.658,4.103c-1.804,0.657-2.779-1.67-3.671-3.068
		c-0.128,0.876-1.542,5.413-6.729,7.301c-6.089,2.216-9.657-0.571-11.341-5.194C609.251,200.618,608.978,194.077,623.298,188.865z
		 M622.636,202.833c2.143-0.78,3.618-3.041,3.781-5.399l-1.129-3.101c-5.356,1.949-7.359,4.338-6.374,7.044
		C619.427,202.788,620.774,203.51,622.636,202.833z"/>
	<path fill="#6A6A6A" d="M630.861,160.7c-0.431-1.184,0.357-2.173,2.726-3.036l1.579-0.574c2.367-0.862,3.608-0.611,4.038,0.573
		l11.697,32.136c0.615,1.691,1.447,2.219,2.912,1.686c0.508-0.185,1.102-0.656,1.44-0.779c1.128-0.411,3.061,2.973,3.225,3.423
		c0.944,2.594-2.659,4.097-4.407,4.733c-5.299,1.929-9.276,0.12-11.555-6.138L630.861,160.7z"/>
	<path fill="#6A6A6A" d="M660.795,187.156c0.732-0.266,3.45,0.532,6.101-0.432c2.367-0.862,3.13-2.098,2.515-3.789
		c-1.806-4.961-12.015,2.075-15.688-8.018c-2.052-5.638,0.679-10.59,7.049-12.909c1.861-0.677,8.488-2.643,9.638,0.515
		c0.267,0.732,0.222,4.644-0.906,5.054c-0.563,0.205-2.686-0.363-5.223,0.561c-1.918,0.698-2.819,1.729-2.307,3.138
		c1.498,4.116,11.994-2.131,15.647,7.905c2.154,5.92-0.658,11.349-6.973,13.646c-4.905,1.785-10.338,2.295-11.322-0.412
		C658.915,191.289,659.611,187.587,660.795,187.156z"/>
</g>
<rect x="191.061" y="358.973" transform="matrix(0.9397 -0.342 0.342 0.9397 -96.5445 180.4629)" fill="#6A6A6A" width="544.78" height="10.044"/>
<rect x="203.492" y="396.793" transform="matrix(0.9397 -0.342 0.342 0.9397 -109.9867 179.8687)" fill="#6A6A6A" width="503.113" height="10.047"/>
<rect x="214.158" y="421.859" transform="matrix(0.9397 -0.342 0.342 0.9397 -116.8937 190.827)" fill="#6A6A6A" width="537.021" height="10.045"/>
<rect x="225.495" y="454.026" transform="matrix(0.9397 -0.342 0.342 0.9397 -127.4655 195.2062)" fill="#6A6A6A" width="528.613" height="10.047"/>
<rect x="237.798" y="488.373" transform="matrix(0.9397 -0.342 0.342 0.9397 -139.0848 198.0005)" fill="#6A6A6A" width="508.24" height="10.047"/>
<path fill="none" stroke="#FD7A00" stroke-width="5" stroke-linecap="round" stroke-miterlimit="10" d="M371.546,879.752
	c0,0,5.436-23.778,19.737-37.311c14.301-13.531,24.188-5.871,24.694,0.562c0.508,6.431-0.689,49.265-15.605,70.656
	c-14.917,21.391-28.59,11.115-14.102-10.477c14.49-21.591,31.484-38.619,40.002-32.574c8.519,6.047,1.532,28.275-3.295,25.244
	c-4.828-3.031,8.438-26.256,18.259-25.854c9.205,0.387,9.11,14.26,3.941,14.364c-3.64-0.081,4.954-22.854,16.924-22.142
	c6.948,0.412,8.112,12.357,4.651,12.271c-3.462-0.088,0.848-11.457,12.975-10.787s9.1-11.336,16.25-6.834
	c8.822,5.73,18.022-1.967,29.269-26.084"/>
<path fill="none" stroke="#FD7A00" stroke-width="5" stroke-linecap="round" stroke-miterlimit="10" d="M702.468,793.551
	c0,0,71.029-35.832,51.772-88.738c-12.023-33.035-15.829,70.539,18.042,58.211c17.812-6.482,15.709-32.363,8.412-52.41
	c-5.029-13.82-9.317,52.611,22.279,41.11c0,0,11.138-3.39,6.948-14.9c-4.19-11.511-9.241,16.399,15.7,7.321
	c0,0,17.727-6.85,13.109-19.537c-4.176-11.471-12.898,41.676,17.793,4.3c0,0,6.267-8.001,14.918-3.967"/>
<rect x="249.036" y="519.978" transform="matrix(0.9397 -0.342 0.342 0.9397 -149.3712 202.8737)" fill="#6A6A6A" width="503.115" height="10.047"/>
<rect x="259.848" y="545.861" transform="matrix(0.9397 -0.342 0.342 0.9397 -156.6935 213.1135)" fill="#6A6A6A" width="532.24" height="10.047"/>
<rect x="271.039" y="577.21" transform="matrix(0.9397 -0.342 0.342 0.9397 -166.8499 218.2116)" fill="#6A6A6A" width="528.613" height="10.047"/>
<rect x="284.368" y="617.373" transform="matrix(0.9397 -0.342 0.342 0.9397 -181.4216 215.8937)" fill="#6A6A6A" width="474.241" height="10.045"/>
<g>
	<path fill="#6A6A6A" d="M333.007,791.641c0.488-0.178,2.301,0.355,4.066-0.287c1.578-0.574,2.088-1.398,1.678-2.527
		c-1.204-3.307-8.01,1.383-10.458-5.344c-1.368-3.758,0.453-7.059,4.699-8.604c1.24-0.451,5.657-1.762,6.424,0.343
		c0.178,0.488,0.147,3.095-0.604,3.368c-0.375,0.137-1.79-0.241-3.481,0.375c-1.277,0.465-1.878,1.15-1.536,2.09
		c0.998,2.744,7.995-1.42,10.43,5.271c1.437,3.946-0.438,7.563-4.648,9.097c-3.27,1.189-6.891,1.529-7.547-0.274
		C331.755,794.395,332.218,791.928,333.007,791.641z"/>
	<path fill="#6A6A6A" d="M340.697,767.391l-1.108-3.043c-0.287-0.789,0.239-1.449,1.817-2.023l1.053-0.383
		c1.578-0.574,2.405-0.406,2.692,0.383l1.107,3.043c0.287,0.789-0.238,1.449-1.816,2.023l-1.053,0.383
		C341.812,768.348,340.984,768.18,340.697,767.391z M342.722,772.955c-0.287-0.789,0.238-1.449,1.816-2.024l1.053-0.384
		c1.579-0.574,2.406-0.406,2.693,0.383l6.332,17.4c0.288,0.789-0.238,1.449-1.816,2.023l-1.053,0.383
		c-1.578,0.574-2.405,0.406-2.692-0.383L342.722,772.955z"/>
	<path fill="#6A6A6A" d="M360.957,785.512l-0.017-0.164c-1.245-0.144-2.191-0.99-2.643-2.23c-0.465-1.277-0.035-2.668,1.119-3.94
		c-2.211-0.343-4.069-1.71-5.082-4.491c-1.764-4.848,1.173-8.002,5.645-9.629c1.016-0.37,2.033-0.613,3.004-0.754l6.05-2.203
		c0.79-0.287,1.333,0.154,1.812,1.469l0.233,0.64c0.451,1.239,0.342,1.876-0.259,2.095c-0.264,0.096-1.305,0.391-1.672,0.438
		l-0.02,0.178c0.502,0.328,1.106,1.172,1.366,1.886c1.71,4.698-0.96,7.884-5.244,9.442c-1.541,0.561-2.17,1.172-1.923,1.85
		c0.93,2.555,11.305-4.371,13.999,3.033c1.409,3.871-1.546,7.797-7.37,9.918c-6.052,2.202-9.588,1.488-10.833-1.932
		C358.412,789.16,359.054,787.184,360.957,785.512z M368.769,788.498c2.593-0.943,3.61-2.122,3.2-3.249
		c-0.424-1.165-2.077-1.03-6.471,0.228c-1.152,0.93-1.565,2.016-1.292,2.768C364.576,789.259,365.987,789.511,368.769,788.498z
		 M365.233,770.719c-0.684-1.879-2.248-2.203-3.79-1.642c-1.54,0.562-2.531,1.815-1.848,3.692c0.685,1.879,2.235,2.168,3.776,1.606
		S365.917,772.598,365.233,770.719z"/>
	<path fill="#6A6A6A" d="M375.314,767.305c-1.368-3.758-2.105-4.383-2.38-5.135c-0.328-0.901,2.833-2.393,3.771-2.734
		c1.203-0.438,1.825,1.038,2.394,1.896c0.569-1.824,2.117-4.005,4.56-4.894c3.758-1.367,6.223-0.095,7.74,4.076l4.637,12.74
		c0.288,0.789-0.238,1.449-1.817,2.025l-1.052,0.382c-1.578,0.575-2.405,0.407-2.692-0.382l-4.336-11.914
		c-0.533-1.465-1.45-2.111-3.104-1.509c-1.54,0.562-2.075,2.245-2.213,3.273l4.391,12.063c0.288,0.789-0.238,1.449-1.816,2.024
		l-1.053,0.384c-1.578,0.574-2.405,0.406-2.692-0.383L375.314,767.305z"/>
	<path fill="#6A6A6A" d="M402.115,749.721c5.899-2.148,9.745,1.516,11.647,6.74c0.232,0.639-0.622,2.738-1.11,2.916l-9.583,3.487
		c1.357,2.911,3.315,3.262,5.757,2.372c2.369-0.861,3.598-2.629,4.124-2.82c0.827-0.301,2.721,1.395,2.993,2.145
		c0.685,1.88-3.675,4.402-5.779,5.168c-6.803,2.477-11.245-0.375-13.447-6.426C394.022,755.899,396.74,751.676,402.115,749.721z
		 M407.802,756.928c-0.793-2.18-2.207-3.495-4.086-2.811c-1.578,0.574-2.604,1.969-2.002,5.025L407.802,756.928z"/>
	<path fill="#6A6A6A" d="M416.921,755.779c-2.229-6.127-0.823-11.148,4.251-12.996c1.767-0.643,3.263-0.508,4.257-0.23l-3.037-8.342
		c-0.287-0.789,0.24-1.449,1.818-2.024l1.052-0.383c1.578-0.575,2.405-0.407,2.692,0.382l7.469,20.52
		c1.408,3.871,2.147,4.496,2.435,5.285c0.328,0.902-2.832,2.393-3.772,2.734c-1.201,0.438-1.852-1.113-2.432-2.008
		c-0.277,1.93-1.682,3.803-4.011,4.65C423.583,764.846,419.302,762.318,416.921,755.779z M429.915,754.881l-3.051-8.381
		c-0.724-0.121-1.725-0.182-2.889,0.242c-2.368,0.861-2.785,3.227-1.417,6.984c1.327,3.646,3.016,5.244,5.082,4.492
		C429.069,757.699,429.663,756.291,429.915,754.881z"/>
	<path fill="#6A6A6A" d="M435.505,743.1l-1.259-3.457c-0.287-0.789,0.238-1.449,1.817-2.023l1.203-0.438
		c1.578-0.575,2.404-0.407,2.691,0.382l1.259,3.458c0.288,0.79-0.238,1.448-1.816,2.022l-1.203,0.438
		C436.618,744.056,435.792,743.889,435.505,743.1z M439.32,753.584c-0.287-0.789,0.239-1.449,1.817-2.023l1.203-0.438
		c1.578-0.574,2.405-0.407,2.692,0.382l1.259,3.458c0.287,0.789-0.238,1.449-1.816,2.023l-1.203,0.438
		c-1.579,0.575-2.406,0.408-2.693-0.381L439.32,753.584z"/>
</g>
<line fill="none" stroke="#6A6A6A" stroke-width="7" stroke-miterlimit="10" x1="389.632" y1="952.686" x2="406.774" y2="946.445"/>
<line fill="none" stroke="#6A6A6A" stroke-width="7" stroke-miterlimit="10" x1="424.05" y1="940.225" x2="441.192" y2="933.984"/>
<line fill="none" stroke="#6A6A6A" stroke-width="7" stroke-miterlimit="10" x1="458.454" y1="927.725" x2="551.243" y2="893.951"/>
<line fill="none" stroke="#6A6A6A" stroke-width="7" stroke-miterlimit="10" x1="716.39" y1="834.229" x2="750.53" y2="821.803"/>
<line fill="none" stroke="#6A6A6A" stroke-width="7" stroke-miterlimit="10" x1="768.761" y1="815.234" x2="785.904" y2="808.994"/>
<line fill="none" stroke="#6A6A6A" stroke-width="7" stroke-miterlimit="10" x1="803.416" y1="802.643" x2="878.001" y2="775.496"/>
</svg>
