<?xml version="1.0" encoding="utf-8"?>
<!-- Generator: Adobe Illustrator 15.1.0, SVG Export Plug-In . SVG Version: 6.00 Build 0)  -->
<!DOCTYPE svg PUBLIC "-//W3C//DTD SVG 1.1//EN" "http://www.w3.org/Graphics/SVG/1.1/DTD/svg11.dtd">
<svg version="1.1" id="Layer_1" xmlns="http://www.w3.org/2000/svg" xmlns:xlink="http://www.w3.org/1999/xlink" x="0px" y="0px"
	 width="1000px" height="1000px" viewBox="0 0 1000 1000" enable-background="new 0 0 1000 1000" xml:space="preserve">
<path fill="#F07F37" stroke="#000000" stroke-width="2.5" d="M663.033,334.62c-45.254-18.874-85.715-20.589-105.256-20.589
	c-14.396,0-32.567,10.97-19.883,26.741c9.361,11.637,28.121,53.841-38.729,53.841c-66.847,0-48.089-42.205-38.729-53.841
	c12.684-15.771-5.484-26.741-19.883-26.741c-19.541,0-60,1.715-105.254,20.589c18.87,45.25,20.586,85.714,20.586,105.254
	c0,14.398-10.971,32.567-26.739,19.885c-11.639-9.362-53.842-28.123-53.842,38.728c0,66.849,42.203,48.091,53.842,38.728
	c15.768-12.682,26.739,5.487,26.739,19.884c0,19.541-1.716,60.004-20.586,105.255c45.251,18.872,85.714,20.587,105.254,20.587
	c14.396,0,32.566-10.972,19.883-26.739c-9.361-11.638-28.121-53.841,38.729-53.841c66.851,0,48.091,42.203,38.729,53.841
	c-12.685,15.768,5.486,26.739,19.883,26.739c19.541,0,60.002-1.715,105.256-20.587c-18.872-45.251-20.586-85.718-20.586-105.256
	c0-14.398,10.97-32.568,26.739-19.886c11.635,9.362,53.84,28.122,53.84-38.728c0-66.851-42.205-48.09-53.84-38.728
	c-15.77,12.682-26.739-5.487-26.739-19.885C642.447,420.332,644.161,379.871,663.033,334.62z"/>
<path fill="#E74E42" stroke="#000000" stroke-width="2.5" d="M664.605,333.327c18.872-45.251,20.587-85.714,20.587-105.254
	c0-14.398-10.973-32.566-26.741-19.884c-11.637,9.362-53.839,28.122-53.839-38.728c0-66.852,42.202-48.091,53.839-38.729
	c15.769,12.683,26.741-5.487,26.741-19.884c0-19.54-1.715-60.002-20.587-105.254h327.732v327.736
	c-45.251,18.873-85.712,20.587-105.256,20.587c-14.396,0-32.563-10.97-19.879-26.74c9.357-11.638,28.121-53.84-38.731-53.84
	c-66.849,0-48.089,42.203-38.727,53.84c12.682,15.77-5.487,26.74-19.887,26.74c-19.538,0-60.001-1.714-105.252-20.587
	L664.605,333.327z"/>
<path fill="#7FC1FF" stroke="#000000" stroke-width="2.5" d="M664.605,664.488c18.872,45.251,20.587,85.713,20.587,105.253
	c0,14.399-10.973,32.567-26.741,19.886c-11.637-9.363-53.839-28.123-53.839,38.728s42.202,48.09,53.839,38.729
	c15.769-12.683,26.741,5.485,26.741,19.884c0,19.539-1.715,60.002-20.587,105.254h327.732V664.488
	c-45.251-18.875-85.712-20.59-105.256-20.59c-14.396,0-32.563,10.971-19.879,26.742c9.357,11.636,28.121,53.839-38.731,53.839
	c-66.849,0-48.089-42.203-38.727-53.839c12.682-15.771-5.487-26.742-19.887-26.742C750.32,643.898,709.857,645.613,664.605,664.488
	L664.605,664.488z"/>
<path fill="#6A6A6A" stroke="#000000" stroke-width="2.5" d="M664.605,662.352c45.251-18.87,85.715-20.587,105.253-20.587
	c14.396,0,32.568,10.971,19.887,26.739c-9.364,11.639-28.122,53.841,38.727,53.841c66.853,0,48.089-42.202,38.731-53.841
	c-12.685-15.769,5.483-26.739,19.879-26.739c19.544,0,60.005,1.717,105.256,20.587V334.618
	c-45.251,18.871-85.717,20.585-105.256,20.585c-14.396,0-32.568-10.969-19.885-26.738c9.363-11.639,28.122-53.84-38.726-53.84
	c-66.854,0-48.091,42.201-38.731,53.84c12.682,15.769-5.485,26.738-19.882,26.738c-19.544,0-60.002-1.714-105.253-20.585
	c-18.876,45.25-20.59,85.714-20.59,105.254c0,14.398,10.972,32.567,26.741,19.885c11.636-9.362,53.839-28.123,53.839,38.728
	c0,66.85-42.203,48.09-53.839,38.728c-15.77-12.683-26.741,5.487-26.741,19.886C644.016,576.636,645.729,617.1,664.605,662.352
	L664.605,662.352z"/>
<path fill="#70BF44" stroke="#000000" stroke-width="2.5" d="M332.949,664.488c-18.872,45.251-20.586,85.713-20.586,105.253
	c0,14.399,10.97,32.567,26.739,19.886c11.638-9.363,53.84-28.123,53.84,38.728s-42.202,48.09-53.84,38.729
	c-15.769-12.683-26.739,5.485-26.739,19.884c0,19.539,1.714,60.002,20.586,105.254H5.215V664.488
	c45.251-18.875,85.714-20.59,105.254-20.59c14.398,0,32.567,10.971,19.885,26.742c-9.362,11.636-28.122,53.839,38.728,53.839
	s48.09-42.203,38.729-53.839c-12.684-15.771,5.485-26.742,19.884-26.742c19.54,0,60.001,1.715,105.253,20.59H332.949z"/>
<path fill="#6A6A6A" stroke="#000000" stroke-width="2.5" d="M332.949,333.327c-18.872-45.251-20.586-85.714-20.586-105.254
	c0-14.398,10.97-32.566,26.739-19.884c11.638,9.362,53.84,28.122,53.84-38.728c0-66.852-42.202-48.091-53.84-38.729
	c-15.769,12.683-26.739-5.487-26.739-19.884c0-19.54,1.714-60.002,20.586-105.254H5.215v327.736
	c45.251,18.873,85.714,20.587,105.254,20.587c14.398,0,32.567-10.97,19.885-26.74c-9.362-11.638-28.122-53.84,38.728-53.84
	s48.09,42.203,38.729,53.84c-12.684,15.77,5.485,26.74,19.884,26.74c19.54,0,60.001-1.714,105.253-20.587L332.949,333.327z"/>
<path fill="#7FC1FF" stroke="#000000" stroke-width="2.5" d="M332.949,334.618c-45.252,18.871-85.715,20.585-105.254,20.585
	c-14.397,0-32.566-10.969-19.884-26.738c9.361-11.639,28.122-53.84-38.729-53.84c-66.85,0-48.09,42.201-38.728,53.84
	c12.682,15.769-5.486,26.738-19.885,26.738c-19.54,0-60.003-1.714-105.254-20.585l0.002,327.734
	c45.251-18.87,85.714-20.587,105.254-20.587c14.398,0,32.567,10.971,19.885,26.739c-9.362,11.639-28.122,53.841,38.729,53.841
	s48.09-42.202,38.729-53.841c-12.684-15.769,5.486-26.739,19.884-26.739c19.54,0,60.002,1.717,105.254,20.587
	c18.871-45.252,20.586-85.716,20.586-105.254c0-14.398-10.97-32.568-26.738-19.886c-11.639,9.362-53.841,28.122-53.841-38.728
	c0-66.851,42.203-48.09,53.841-38.728c15.768,12.682,26.738-5.487,26.738-19.885c0-19.54-1.715-60.003-20.586-105.254H332.949z"/>
<path fill="#70BF44" stroke="#000000" stroke-width="2.5" d="M335.301,333.327c45.251-18.871,85.714-20.586,105.252-20.586
	c14.398,0,32.566,10.97,19.884,26.739c-9.362,11.639-28.12,53.841,38.729,53.841c66.851,0,48.089-42.202,38.728-53.841
	c-12.682-15.769,5.486-26.739,19.885-26.739c19.539,0,60.004,1.716,105.254,20.586c18.871-45.251,20.587-85.714,20.587-105.254
	c0-14.398-10.97-32.566-26.738-19.884c-11.641,9.362-53.842,28.122-53.842-38.728c0-66.852,42.201-48.091,53.842-38.729
	c15.769,12.683,26.738-5.487,26.738-19.884c0-19.54-1.716-60.002-20.587-105.254H335.299
	c-18.872,45.252-20.586,85.715-20.586,105.254c0,14.397,10.97,32.567,26.738,19.884c11.639-9.362,53.841-28.123,53.841,38.729
	c0,66.849-42.202,48.089-53.841,38.728c-15.768-12.683-26.738,5.485-26.738,19.884C314.712,247.613,316.427,288.076,335.301,333.327
	z"/>
<path fill="#E74E42" stroke="#000000" stroke-width="2.5" d="M663.031,664.488c-45.252,18.871-85.715,20.587-105.255,20.587
	c-14.397,0-32.566-10.973-19.884-26.74c9.361-11.638,28.121-53.841-38.728-53.841c-66.85,0-48.091,42.203-38.729,53.841
	c12.682,15.768-5.486,26.74-19.884,26.74c-19.539,0-60.001-1.716-105.252-20.587c-18.872,45.251-20.586,85.713-20.586,105.253
	c0,14.399,10.97,32.567,26.738,19.886c11.639-9.363,53.841-28.123,53.841,38.728s-42.202,48.09-53.841,38.729
	c-15.768-12.683-26.738,5.485-26.738,19.884c0,19.539,1.715,60.002,20.586,105.254h327.732
	c18.873-45.252,20.589-85.715,20.589-105.254c0-14.398-10.97-32.566-26.741-19.884c-11.638,9.36-53.84,28.121-53.84-38.729
	c0-66.848,42.202-48.091,53.84-38.728c15.771,12.683,26.741-5.486,26.741-19.886C683.62,750.201,681.903,709.739,663.031,664.488z"
	/>
</svg>
