<?xml version="1.0" encoding="utf-8"?>
<!-- Generator: Adobe Illustrator 15.1.0, SVG Export Plug-In . SVG Version: 6.00 Build 0)  -->
<!DOCTYPE svg PUBLIC "-//W3C//DTD SVG 1.1//EN" "http://www.w3.org/Graphics/SVG/1.1/DTD/svg11.dtd">
<svg version="1.1" id="Layer_1" xmlns="http://www.w3.org/2000/svg" xmlns:xlink="http://www.w3.org/1999/xlink" x="0px" y="0px"
	 width="1000px" height="1000px" viewBox="0 0 1000 1000" enable-background="new 0 0 1000 1000" xml:space="preserve">
<g>
	
		<rect x="197.117" y="111.734" transform="matrix(0.9397 -0.342 0.342 0.9397 -198.7418 239.4615)" fill="#E5A061" width="765.077" height="1143.114"/>
	
		<rect x="263.482" y="218.596" transform="matrix(0.9397 -0.342 0.342 0.9397 -201.9092 240.4363)" fill="#FFF9DC" width="634.707" height="948.326"/>
	<path fill="#C0C0C0" d="M651.907,196.003c-3.484,1.268-438.678,159.665-441.498,160.692c-2.82,1.025-4.28-0.766-4.41-4.242
		c-0.129-3.477-1.602-45.627-1.684-47.998c-0.083-2.371,1.032-5.256,3.141-6.646c16.342-10.766,87.869-57.894,88.894-58.593
		c1.155-0.79,1.712-2.294,1.223-3.638c-0.489-1.343-20.138-54.85-21.335-58.139s-1.521-6.249,2.777-7.813
		c48.285-17.574,19.273-109.645,67.168-127.078c47.896-17.432,88.559,70.362,134.126,53.776c4.064-1.479,5.52-0.89,7.358,4.161
		c1.838,5.051,20.828,56.742,21.336,58.139c0.509,1.397,1.473,2.36,3.021,2.093c1.352-0.233,82.913-9.389,103.66-11.716
		c3.026-0.339,5.962,0.884,7.871,3.452c1.907,2.568,27.072,34.764,29.484,37.751C655.451,193.191,655.392,194.734,651.907,196.003z
		 M356.913,71.633c-13.148,4.785-19.927,19.322-15.142,32.47c4.785,13.146,19.322,19.927,32.47,15.141
		c13.147-4.785,19.927-19.323,15.142-32.47C384.598,73.627,370.06,66.848,356.913,71.633z"/>
	<g>
		<path fill="#6A6A6A" d="M200.569,447.504c-0.431-1.185,0.358-2.174,2.727-3.035l2.988-1.088c1.635-0.595,3.074-0.673,4.105,0.229
			l16.346,14.034l3.613-21.299c0.209-1.354,1.362-2.22,2.998-2.814l2.931-1.067c2.368-0.862,3.609-0.611,4.04,0.573l13.133,36.082
			c0.432,1.185-0.358,2.174-2.727,3.036l-1.635,0.595c-2.368,0.861-3.609,0.611-4.04-0.573l-8.495-23.341l-0.245,0.025
			l-2.861,17.578c-0.261,0.861-0.794,1.502-1.864,1.892l-1.636,0.595c-1.071,0.391-1.891,0.242-2.645-0.25l-13.49-11.627
			l-0.205,0.139l8.495,23.342c0.432,1.184-0.358,2.173-2.726,3.035l-1.635,0.595c-2.368,0.862-3.608,0.611-4.04-0.573
			L200.569,447.504z"/>
		<path fill="#6A6A6A" d="M263.129,433.608c8.851-3.222,14.619,2.276,17.472,10.114c0.35,0.958-0.932,4.105-1.664,4.373
			l-14.377,5.232c2.036,4.367,4.974,4.895,8.639,3.56c3.551-1.292,5.396-3.943,6.186-4.231c1.24-0.451,4.08,2.092,4.49,3.219
			c1.026,2.819-5.513,6.604-8.67,7.753c-10.205,3.714-16.87-0.563-20.174-9.642C250.987,442.88,255.066,436.543,263.129,433.608z
			 M271.661,444.422c-1.189-3.27-3.312-5.242-6.131-4.217c-2.369,0.862-3.905,2.954-3.003,7.541L271.661,444.422z"/>
		<path fill="#6A6A6A" d="M285.337,442.701c-3.345-9.19-1.234-16.727,6.376-19.496c2.649-0.965,4.896-0.761,6.387-0.346
			l-4.556-12.516c-0.431-1.184,0.358-2.174,2.727-3.036l1.578-0.574c2.368-0.862,3.609-0.61,4.04,0.573l11.204,30.783
			c2.113,5.807,3.221,6.744,3.651,7.929c0.493,1.353-4.248,3.589-5.657,4.103c-1.805,0.656-2.779-1.67-3.65-3.014
			c-0.414,2.896-2.521,5.706-6.017,6.979C295.332,456.303,288.907,452.511,285.337,442.701z M304.831,441.352l-4.576-12.572
			c-1.088-0.179-2.589-0.271-4.336,0.365c-3.553,1.293-4.178,4.84-2.125,10.479c1.99,5.469,4.523,7.866,7.624,6.738
			C303.561,445.581,304.452,443.47,304.831,441.352z"/>
		<path fill="#6A6A6A" d="M310.374,409.39l-1.662-4.567c-0.432-1.184,0.357-2.173,2.726-3.035l1.578-0.574
			c2.368-0.861,3.609-0.61,4.04,0.573l1.662,4.566c0.431,1.184-0.358,2.174-2.727,3.036l-1.578,0.574
			C312.045,410.824,310.805,410.573,310.374,409.39z M313.411,417.734c-0.432-1.185,0.357-2.174,2.726-3.035l1.578-0.575
			c2.368-0.862,3.608-0.611,4.04,0.573l9.501,26.104c0.431,1.184-0.358,2.174-2.727,3.035l-1.578,0.574
			c-2.368,0.862-3.608,0.611-4.04-0.572L313.411,417.734z"/>
		<path fill="#6A6A6A" d="M347.042,416.283l-0.677-1.86c-0.78-2.143-2.467-2.741-5.567-1.612c-4.115,1.497-5.884,4.184-6.56,4.43
			c-1.184,0.432-4.144-2.259-4.574-3.443c-0.697-1.917,3.095-5.531,9.353-7.81c8.908-3.242,13.559-0.465,15.549,5.003l3.858,10.6
			c2.113,5.808,3.221,6.745,3.651,7.93c0.492,1.353-4.248,3.589-5.658,4.102c-1.804,0.657-2.778-1.67-3.67-3.068
			c-0.129,0.876-1.543,5.413-6.729,7.301c-6.089,2.217-9.658-0.571-11.341-5.194S332.723,421.496,347.042,416.283z M346.38,430.252
			c2.143-0.779,3.619-3.041,3.781-5.399l-1.129-3.101c-5.355,1.949-7.359,4.339-6.374,7.045
			C343.171,430.206,344.52,430.93,346.38,430.252z"/>
		<path fill="#6A6A6A" d="M361.88,405.647l-0.902,0.328c-1.184,0.431-1.999-0.229-2.718-2.203l-0.349-0.958
			c-0.719-1.975-0.518-3.005,0.666-3.436l0.902-0.328l-1.219-5.623c-0.261-1.245,0.529-2.234,2.389-2.912l1.748-0.636
			c1.974-0.718,3.044-0.405,3.475,0.778l1.949,5.355l2.764-1.006c1.184-0.431,2,0.23,2.718,2.204l0.349,0.958
			c0.719,1.975,0.519,3.004-0.665,3.436l-2.764,1.005l5.212,14.32c0.615,1.691,1.447,2.22,2.913,1.687
			c0.508-0.186,1.102-0.657,1.44-0.78c1.128-0.411,3.061,2.972,3.226,3.423c0.943,2.594-2.66,4.097-4.407,4.732
			c-5.301,1.93-9.277,0.12-11.556-6.138L361.88,405.647z"/>
		<path fill="#6A6A6A" d="M375.325,385.749l-1.662-4.566c-0.431-1.184,0.357-2.174,2.727-3.036l1.578-0.574
			c2.367-0.861,3.609-0.61,4.04,0.573l1.662,4.566c0.431,1.184-0.359,2.174-2.728,3.036l-1.578,0.574
			C376.996,387.184,375.756,386.933,375.325,385.749z M378.362,394.094c-0.432-1.185,0.357-2.174,2.727-3.035l1.578-0.575
			c2.367-0.862,3.609-0.611,4.04,0.573l9.501,26.104c0.431,1.184-0.359,2.174-2.728,3.035l-1.578,0.574
			c-2.368,0.862-3.608,0.611-4.039-0.572L378.362,394.094z"/>
		<path fill="#6A6A6A" d="M405.265,381.875c8.964-3.262,15.594,0.391,19.164,10.2c3.57,9.811,0.86,16.927-8.104,20.188
			c-8.965,3.264-15.671-0.426-19.241-10.235S396.3,385.139,405.265,381.875z M415.972,395.153c-2.053-5.638-4.697-7.995-8.306-6.681
			c-3.608,1.312-4.177,4.839-2.125,10.478c2.052,5.638,4.775,8.031,8.384,6.718S418.023,400.791,415.972,395.153z"/>
		<path fill="#6A6A6A" d="M428.549,385.148c-2.052-5.638-3.16-6.575-3.57-7.703c-0.492-1.353,4.249-3.589,5.657-4.103
			c1.805-0.656,2.738,1.558,3.59,2.845c0.855-2.738,3.176-6.009,6.841-7.343c5.638-2.052,9.334-0.142,11.612,6.116l6.956,19.113
			c0.431,1.184-0.358,2.174-2.726,3.035l-1.58,0.575c-2.367,0.861-3.607,0.61-4.038-0.573l-6.505-17.873
			c-0.801-2.198-2.175-3.166-4.655-2.264c-2.312,0.842-3.116,3.369-3.32,4.912l6.587,18.098c0.431,1.184-0.358,2.174-2.726,3.035
			l-1.579,0.574c-2.368,0.862-3.608,0.611-4.039-0.572L428.549,385.148z"/>
		<path fill="#6A6A6A" d="M478.376,378.378c1.016-0.369,4.721,1.219,9.232-0.423c2.424-0.883,5.031-2.662,3.801-6.045
			c-2.422-6.652-17.771,1.871-22.593-11.378c-3.017-8.288,2.559-14.02,9.154-16.421c5.977-2.175,10.907-1.607,11.585,0.253
			c0.554,1.522,0.038,5.541-1.315,6.034c-0.733,0.267-2.993-0.508-6.771,0.867c-4.398,1.602-4.505,3.938-4.032,5.235
			c2.339,6.427,17.688-2.097,22.511,11.153c3.406,9.358-2.042,14.916-8.188,17.153c-8.569,3.119-14.355,1.777-15.054-0.14
			C476.071,382.92,477.192,378.809,478.376,378.378z"/>
		<path fill="#6A6A6A" d="M498.509,350.363c-0.432-1.184,0.359-2.173,2.727-3.035l1.578-0.574c2.369-0.862,3.609-0.611,4.04,0.572
			l6.505,17.873c0.801,2.198,2.175,3.167,4.655,2.264c2.312-0.841,3.115-3.368,3.319-4.912l-6.587-18.097
			c-0.431-1.185,0.358-2.174,2.726-3.036l1.578-0.574c2.369-0.861,3.609-0.611,4.041,0.573l6.505,17.872
			c2.113,5.807,3.221,6.745,3.651,7.929c0.492,1.354-4.248,3.589-5.658,4.103c-1.804,0.656-2.778-1.67-3.67-3.069
			c-0.855,2.737-3.177,6.009-6.842,7.343c-5.639,2.052-9.334,0.141-11.612-6.117L498.509,350.363z"/>
		<path fill="#6A6A6A" d="M526.876,330.589l-1.662-4.566c-0.431-1.184,0.359-2.174,2.727-3.035l1.578-0.575
			c2.369-0.861,3.609-0.61,4.04,0.573l1.662,4.566c0.431,1.184-0.358,2.174-2.728,3.036l-1.578,0.574
			C528.548,332.023,527.307,331.772,526.876,330.589z M529.913,338.934c-0.432-1.185,0.359-2.174,2.727-3.035l1.578-0.575
			c2.369-0.862,3.609-0.611,4.04,0.573L547.759,362c0.431,1.184-0.358,2.174-2.728,3.035l-1.578,0.575
			c-2.367,0.861-3.608,0.61-4.039-0.573L529.913,338.934z"/>
		<path fill="#6A6A6A" d="M547.654,338.031l-0.902,0.328c-1.184,0.431-1.999-0.229-2.718-2.203l-0.349-0.959
			c-0.718-1.974-0.519-3.004,0.665-3.435l0.902-0.328l-1.217-5.623c-0.261-1.245,0.528-2.234,2.389-2.912l1.748-0.636
			c1.973-0.719,3.044-0.406,3.475,0.777l1.949,5.356l2.764-1.006c1.184-0.431,1.998,0.23,2.717,2.204l0.349,0.958
			c0.719,1.974,0.519,3.004-0.665,3.435l-2.763,1.006l5.212,14.32c0.615,1.691,1.446,2.22,2.912,1.686
			c0.508-0.185,1.102-0.656,1.44-0.779c1.128-0.411,3.062,2.972,3.226,3.423c0.943,2.593-2.66,4.097-4.407,4.732
			c-5.301,1.93-9.278,0.12-11.556-6.138L547.654,338.031z"/>
		<path fill="#6A6A6A" d="M582.827,330.465l-0.677-1.861c-0.78-2.143-2.467-2.74-5.567-1.612c-4.116,1.498-5.884,4.185-6.561,4.431
			c-1.184,0.432-4.143-2.26-4.573-3.443c-0.697-1.917,3.094-5.531,9.353-7.81c8.908-3.242,13.559-0.466,15.549,5.003l3.858,10.6
			c2.113,5.807,3.221,6.745,3.651,7.93c0.492,1.353-4.249,3.589-5.658,4.102c-1.804,0.656-2.778-1.67-3.672-3.068
			c-0.127,0.876-1.541,5.413-6.728,7.301c-6.089,2.216-9.657-0.571-11.341-5.195C568.779,342.217,568.507,335.677,582.827,330.465z
			 M582.165,344.434c2.143-0.78,3.617-3.041,3.781-5.4l-1.129-3.1c-5.356,1.949-7.359,4.338-6.374,7.045
			C578.956,344.388,580.305,345.11,582.165,344.434z"/>
		<path fill="#6A6A6A" d="M590.56,302.238c-0.431-1.184,0.357-2.174,2.727-3.035l1.578-0.574c2.367-0.862,3.609-0.611,4.04,0.572
			l4.556,12.517c0.875-1.276,2.464-2.876,5.113-3.841c7.611-2.77,14.072,1.646,17.417,10.836c3.57,9.811,1.086,16.844-5.003,19.061
			c-3.495,1.271-6.915,0.474-9.095-1.479l0.319,2.63c0.17,1.343-0.933,2-2.737,2.656l-0.676,0.246
			c-2.368,0.861-3.608,0.611-4.039-0.573L590.56,302.238z M616.023,331.854c3.102-1.129,3.5-4.594,1.51-10.062
			c-2.052-5.638-4.811-7.953-8.363-6.66c-1.747,0.636-2.839,1.672-3.556,2.507l4.576,12.572
			C611.841,331.589,613.882,332.634,616.023,331.854z"/>
		<path fill="#6A6A6A" d="M623.908,295.272l-1.662-4.566c-0.431-1.184,0.358-2.174,2.726-3.036l1.578-0.574
			c2.369-0.861,3.609-0.61,4.04,0.573l1.662,4.566c0.431,1.184-0.358,2.174-2.727,3.036l-1.579,0.574
			C625.579,296.707,624.339,296.456,623.908,295.272z M626.945,303.617c-0.431-1.185,0.358-2.174,2.726-3.035l1.578-0.575
			c2.369-0.862,3.609-0.611,4.04,0.573l9.501,26.104c0.431,1.184-0.358,2.174-2.727,3.035l-1.579,0.574
			c-2.367,0.862-3.607,0.611-4.038-0.572L626.945,303.617z"/>
		<path fill="#6A6A6A" d="M637.412,285.186c-0.431-1.184,0.356-2.173,2.726-3.035l1.578-0.574c2.367-0.862,3.609-0.611,4.04,0.572
			l11.696,32.137c0.615,1.691,1.447,2.219,2.912,1.686c0.508-0.185,1.102-0.656,1.44-0.779c1.128-0.411,3.06,2.972,3.225,3.423
			c0.943,2.594-2.659,4.097-4.407,4.733c-5.3,1.929-9.277,0.119-11.555-6.139L637.412,285.186z"/>
		<path fill="#6A6A6A" d="M655.594,283.74l-1.662-4.567c-0.431-1.184,0.358-2.174,2.726-3.035l1.578-0.575
			c2.369-0.861,3.61-0.61,4.041,0.573l1.662,4.567c0.431,1.184-0.358,2.173-2.728,3.035l-1.578,0.574
			C657.266,285.175,656.024,284.924,655.594,283.74z M658.631,292.084c-0.431-1.184,0.358-2.174,2.726-3.035l1.578-0.574
			c2.369-0.862,3.609-0.611,4.041,0.572l9.501,26.104c0.431,1.184-0.358,2.174-2.728,3.035l-1.578,0.575
			c-2.367,0.861-3.608,0.61-4.039-0.573L658.631,292.084z"/>
		<path fill="#6A6A6A" d="M676.372,291.182l-0.902,0.328c-1.184,0.431-1.999-0.229-2.718-2.203l-0.349-0.959
			c-0.719-1.973-0.518-3.004,0.666-3.435l0.902-0.328l-1.218-5.622c-0.262-1.246,0.528-2.235,2.389-2.912l1.748-0.637
			c1.973-0.718,3.043-0.405,3.474,0.778l1.949,5.355l2.764-1.006c1.184-0.431,2,0.23,2.718,2.204l0.349,0.959
			c0.719,1.973,0.519,3.003-0.665,3.434l-2.764,1.006l5.212,14.32c0.615,1.691,1.447,2.22,2.913,1.687
			c0.508-0.185,1.102-0.657,1.44-0.78c1.128-0.41,3.061,2.972,3.226,3.423c0.943,2.594-2.66,4.097-4.407,4.733
			c-5.301,1.929-9.277,0.119-11.556-6.139L676.372,291.182z"/>
		<path fill="#6A6A6A" d="M690.48,281.003c-0.257-0.354-0.492-0.651-0.595-0.933c-0.287-0.789,0.619-1.631,2.988-2.492l1.803-0.657
			c1.637-0.595,2.979-0.765,3.59,0.035l7.121,9.22c0.867,1.152,2.673,4.007,4.062,6.246l0.226-0.081
			c-0.376-2.609-0.848-6.013-0.904-7.396l-0.471-11.641c-0.046-1.006,1.091-1.738,2.728-2.334l1.352-0.492
			c2.369-0.862,3.549-0.78,3.836,0.009c0.103,0.282,0.168,0.641,0.199,1.077l0.838,42.473c-0.01,1.025-1.092,1.738-2.726,2.333
			l-0.959,0.349c-2.312,0.842-3.547,0.78-3.813,0.048c-0.104-0.282-0.17-0.641-0.145-1.098l0.125-10.707L690.48,281.003z"/>
	</g>
</g>
<g>
	<g>
		<path fill="#6A6A6A" d="M324.958,535.459l26.031,71.521l-71.52,26.031l-26.031-71.521L324.958,535.459 M330.936,522.643
			l-90.314,32.871l32.871,90.314l90.314-32.872L330.936,522.643L330.936,522.643z"/>
		
			<rect x="345.656" y="451.528" transform="matrix(0.9397 -0.342 0.342 0.9397 -122.4903 218.4255)" fill="#6A6A6A" width="424.947" height="10.045"/>
		
			<rect x="357.809" y="487.782" transform="matrix(0.9397 -0.342 0.342 0.9397 -135.137 219.2098)" fill="#6A6A6A" width="392.447" height="10.046"/>
		
			<rect x="369.289" y="517.994" transform="matrix(0.9397 -0.342 0.342 0.9397 -144.657 225.6423)" fill="#6A6A6A" width="396.447" height="10.046"/>
	</g>
	
		<polyline fill="none" stroke="#6A6A6A" stroke-width="15" stroke-linecap="round" stroke-linejoin="round" stroke-miterlimit="10" points="
		258.777,601.393 297.082,619.256 337.14,533.355 	"/>
</g>
<g>
	<g>
		<path fill="#6A6A6A" d="M381.964,692.078l26.031,71.52l-71.521,26.031l-26.031-71.52L381.964,692.078 M387.94,679.261
			l-90.314,32.872l32.872,90.313l90.314-32.872L387.94,679.261L387.94,679.261z"/>
		
			<rect x="402.661" y="608.146" transform="matrix(0.9397 -0.342 0.342 0.9397 -172.6189 247.3674)" fill="#6A6A6A" width="424.948" height="10.046"/>
		
			<rect x="414.814" y="644.401" transform="matrix(0.9397 -0.342 0.342 0.9397 -185.2664 248.1534)" fill="#6A6A6A" width="392.448" height="10.046"/>
		
			<rect x="426.294" y="674.612" transform="matrix(0.9397 -0.342 0.342 0.9397 -194.7858 254.5846)" fill="#6A6A6A" width="396.447" height="10.046"/>
	</g>
	
		<polyline fill="none" stroke="#6A6A6A" stroke-width="15" stroke-linecap="round" stroke-linejoin="round" stroke-miterlimit="10" points="
		315.783,758.012 354.087,775.875 394.145,689.973 	"/>
</g>
<g>
	<g>
		<path fill="#6A6A6A" d="M438.81,848.75l26.031,71.521l-71.52,26.031l-26.031-71.521L438.81,848.75 M444.787,835.934
			l-90.314,32.871l32.872,90.314l90.314-32.872L444.787,835.934L444.787,835.934z"/>
		
			<rect x="459.509" y="764.818" transform="matrix(0.9397 -0.342 0.342 0.9397 -222.7758 276.2581)" fill="#6A6A6A" width="424.946" height="10.047"/>
		
			<rect x="471.661" y="801.073" transform="matrix(0.9397 -0.342 0.342 0.9397 -235.4227 277.0433)" fill="#6A6A6A" width="392.447" height="10.046"/>
		
			<rect x="483.14" y="831.285" transform="matrix(0.9397 -0.342 0.342 0.9397 -244.9436 283.4772)" fill="#6A6A6A" width="396.448" height="10.045"/>
	</g>
	
		<polyline fill="none" stroke="#6A6A6A" stroke-width="15" stroke-linecap="round" stroke-linejoin="round" stroke-miterlimit="10" points="
		372.63,914.684 410.935,932.547 450.991,846.646 	"/>
</g>
</svg>
