<?xml version="1.0" encoding="utf-8"?>
<!-- Generator: Adobe Illustrator 15.1.0, SVG Export Plug-In . SVG Version: 6.00 Build 0)  -->
<!DOCTYPE svg PUBLIC "-//W3C//DTD SVG 1.1//EN" "http://www.w3.org/Graphics/SVG/1.1/DTD/svg11.dtd">
<svg version="1.1" id="Layer_1" xmlns="http://www.w3.org/2000/svg" xmlns:xlink="http://www.w3.org/1999/xlink" x="0px" y="0px"
	 width="1000px" height="1000px" viewBox="0 0 1000 1000" enable-background="new 0 0 1000 1000" xml:space="preserve">
<g>
	<path fill="none" stroke="#6A6A6A" stroke-width="2.5" stroke-linecap="round" stroke-miterlimit="10" d="M232.793,254.32
		c-0.5,2.5-2.531,3.875-5.325,4.173c-9.3,0.702-31.364-23.997-34.787-23.469c-5.393,0.938-11.056,1.438-16.896,1.438
		c-8.414,0-16.459-1.037-23.858-2.927"/>
	<path fill="#FFFFFF" stroke="#000000" stroke-width="2.5" stroke-miterlimit="10" d="M242.733,189.607
		c0,11.289-7.108,21.521-18.627,28.974c-4.299,2.782,7.417,30.244,2.029,32.163c-4.662,1.66-26.307-22.104-31.586-21.214
		c-5.294,0.891-10.854,1.366-16.588,1.366c-35.773,0-64.772-18.485-64.772-41.288s29-41.288,64.772-41.288
		S242.733,166.805,242.733,189.607z"/>
	<path fill="none" stroke="#70BF44" stroke-width="2.5" stroke-linecap="round" stroke-linejoin="round" stroke-miterlimit="10" d="
		M35.684,184.289c-5.821,6.443-8.578,13.781-8.578,21.75c0,12.007,7.14,22.948,19.391,30.875c1.734,1.125-9.724,30.917-0.761,34.709
		c2.122,0.794,4.618,0.17,7.287-1.292"/>
	<path fill="none" stroke="#70BF44" stroke-width="2.5" stroke-linecap="round" stroke-linejoin="round" stroke-miterlimit="10" d="
		M80.354,250.878c5.146,0.782,10.514,1.196,16.034,1.196c20.855,0,39.545-5.907,52.179-15.239"/>
	<path fill="#FFFFFF" stroke="#000000" stroke-width="2.5" stroke-miterlimit="10" d="M32.228,205.376
		c0,11.289,7.108,21.521,18.627,28.974c4.299,2.782-7.417,30.244-2.029,32.163c4.662,1.66,26.307-22.104,31.586-21.214
		c5.294,0.891,10.854,1.366,16.588,1.366c35.773,0,64.772-18.485,64.772-41.288s-29-41.288-64.772-41.288
		S32.228,182.573,32.228,205.376z"/>
</g>
<g>
	
		<path fill="#E74E42" stroke="#993030" stroke-width="2.5" stroke-linecap="round" stroke-linejoin="round" stroke-miterlimit="10" d="
		M885.016,231.686c-16.104-49.75-64.772-29.25-64.772,1.193c0,37.124,29.256,57.023,57.105,92.914
		c-1.599-8.792-3.224-19.917-3.224-19.917l14.75-12.25l-17.625-15.25l24.875-20.375l-16.25-10.5L885.016,231.686z"/>
	
		<path fill="#E74E42" stroke="#993030" stroke-width="2.5" stroke-linecap="round" stroke-linejoin="round" stroke-miterlimit="10" d="
		M890.244,231.686c16.104-49.75,64.772-29.25,64.772,1.193c0,40.557-34.918,60.557-64.772,103.307c0,0-0.914,1.614-2.665,1.614
		s-2.48-1.625-2.48-1.625l-3.562-26.156l18.089-15.518l-18.875-16l26.125-21.5L886,244.501
		C886,244.501,887.474,240.061,890.244,231.686z"/>
</g>
<g>
	
		<path fill="#FFFFFF" stroke="#000000" stroke-width="2.5" stroke-linecap="round" stroke-linejoin="round" stroke-miterlimit="10" d="
		M849.483,770.412c9.75,17.25,9,32.75,17.25,46.75s11.417,14.917,22.417,25.583s0.833,6.334-4.5,3.834s-9.667-8.5-1.167,4.666
		s-2.333,7.334-6.5,1.667c-4.166-5.667-6-9.5-3.333,5.333s-7,1-7.833-0.833c-0.834-1.833-3-6-4-0.5s-5,7-6.668-3
		c-1.666-10,2.334-35.666-22.999-47c-25.334-11.334-33.834-27.833-42.334-48.833s-17.833-22.833-19.166-22.333
		c-2.479,0.76-4.334-1.168-5,1.332c-0.668,2.5-6.5,12.001-7.667,10.668c-1.167-1.334,0.167-12.501,0.167-12.501
		s-4.333-11.5,3.5-18.167c7.833-6.666,15.666-4,19.833-2s12.834,6.834,21.667,8c8.833,1.167,13.708,2.959,20.458,9.459
		c31.542-14.625,61.793-38.084,71.709-61.792c6.916-16.583,9.291-1.208,2.916,13.417c0,0,8.75-4.417,10.334-2.084
		c1.583,2.334-3,11.668-15.918,18.418c0,0,12.25-5,14.834-0.834c1.417,3.166-4.75,12.25-25.334,17.084
		c0,0,15.501-1.334,15.834,3.332c0.333,4.667-9.084,9.668-22.834,11c17.417,2.5,17,10.417-18,11.75c0,0,9.533,4.667,19.334,4.667
		c10.167,0,9.416,9.916-6.25,9.916c0,0-9.25,0.75-18.583-2.25c0,0,17.583,9.335,13.833,13.168S849.483,770.412,849.483,770.412z"/>
	<path fill="#E9AB25" stroke="#000000" stroke-width="2.5" stroke-miterlimit="10" d="M765.67,737.037
		c-0.666,2.5-6.5,12-7.666,10.668c-1.166-1.334,0.167-12.502,0.167-12.502s1.5,1.75,3.188,2.125S765.67,737.037,765.67,737.037z"/>
	<path fill="none" stroke="#000000" stroke-width="2.5" stroke-linecap="round" stroke-linejoin="round" stroke-miterlimit="10" d="
		M766.983,727.287c2.458-2.542-2.813-4.626-2.751-0.834"/>
	<g>
		<g>
			
				<path fill="none" stroke="#000000" stroke-width="2.5" stroke-linecap="round" stroke-linejoin="round" stroke-miterlimit="10" d="
				M758.129,747.87c0,0-4.25,25.75-27.625,46.125"/>
			
				<path fill="none" stroke="#000000" stroke-width="2.5" stroke-linecap="round" stroke-linejoin="round" stroke-miterlimit="10" d="
				M745.004,777.745c0,0-4.625,4.188-10.5,5.25"/>
			
				<path fill="none" stroke="#000000" stroke-width="2.5" stroke-linecap="round" stroke-linejoin="round" stroke-miterlimit="10" d="
				M752.502,764.45c-0.252,1.085-1.119,5.24-0.311,8.045"/>
			
				<path fill="none" stroke="#000000" stroke-width="2.5" stroke-linecap="round" stroke-linejoin="round" stroke-miterlimit="10" d="
				M743.691,779.245c0,0-7.438,8.938-7.312,18.875"/>
			
				<path fill="none" stroke="#000000" stroke-width="2.5" stroke-linecap="round" stroke-linejoin="round" stroke-miterlimit="10" d="
				M754.982,758.641c0,0-2.229,4.292-7.104,6.417"/>
		</g>
		<g>
			
				<path fill="#84BB0C" stroke="#000000" stroke-width="2.5" stroke-linecap="round" stroke-linejoin="round" stroke-miterlimit="10" d="
				M748.441,764.995c0,0-17.312,7.812-25.812-0.375C729.004,759.058,738.004,759.183,748.441,764.995z"/>
			
				<path fill="#84BB0C" stroke="#000000" stroke-width="2.5" stroke-linecap="round" stroke-linejoin="round" stroke-miterlimit="10" d="
				M735.254,782.933c0,0-16.438,6.875-24.938-3C710.316,779.933,715.254,771.683,735.254,782.933z"/>
			
				<path fill="#84BB0C" stroke="#000000" stroke-width="2.5" stroke-linecap="round" stroke-linejoin="round" stroke-miterlimit="10" d="
				M752.273,772.118c0,0-5.75,19.749,4.25,32.334C756.523,804.452,767.773,791.285,752.273,772.118z"/>
			
				<path fill="#84BB0C" stroke="#000000" stroke-width="2.5" stroke-linecap="round" stroke-linejoin="round" stroke-miterlimit="10" d="
				M736.275,797.121c0,0-6.666,19.083,4,29.75C740.275,826.871,750.109,814.704,736.275,797.121z"/>
			
				<path fill="#84BB0C" stroke="#000000" stroke-width="2.5" stroke-linecap="round" stroke-linejoin="round" stroke-miterlimit="10" d="
				M714.619,819.424c0,0-5.75-15.584,15.834-25.334C725.203,800.423,728.286,815.674,714.619,819.424z"/>
			<path fill="#655D6D" stroke="#000000" stroke-width="2.5" stroke-miterlimit="10" d="M725.129,790.12
				c-1.625-2.5-14-1.25-12.438,4.625S726.754,792.62,725.129,790.12z"/>
			<path fill="#655D6D" stroke="#000000" stroke-width="2.5" stroke-miterlimit="10" d="M744.629,786.745
				c-2.75,0.375-5.625,11.062,0.125,11.688S747.379,786.37,744.629,786.745z"/>
		</g>
	</g>
</g>
<g>
	
		<path fill="#CD823B" stroke="#935619" stroke-width="2.5" stroke-linecap="round" stroke-linejoin="round" stroke-miterlimit="10" d="
		M113.594,824.761c-14.031-0.901-26.227-7.195-32.688-18.356c-3.099-5.354-4.57-11.292-4.58-17.416
		C76.324,787,57.6,791.323,57.6,778.073c0-6.25,7.167-18.418,13.583-18.418c7.501,0,10.225,8.82,11.524,6.514
		c5.264-9.336,13.617-17.905,24.433-24.166c8.688-5.03,17.876-7.94,26.71-8.847c3.517-0.361-4.146-8.793,1.291-15.543
		c3.625-4.25,14.625-5.312,20.938-0.875c6.812,5.188-2.929,17.75-0.746,18.457c8.83,2.858,16.185,8.293,20.718,16.123
		c2.27,3.921,3.666,8.155,4.255,12.547l0.041-0.021c-0.006-0.046,0.078-0.252,0.078-0.252c2.774-7.733,7.959-10.604,12.717-10.604
		c3.625,0,12.25,1.5,12.25,15s-7.688,30.625-7.688,30.625c-0.906,1.938,0.812,2.438,0.812,2.438
		c9.188,2.688,19.312,15,21.125,24.766c1.281-1.203,3.909-2.557,3.909-2.557c8.72-3.879,19.717,1.808,24.562,12.704
		c4.848,10.895,1.71,22.872-7.01,26.751c-1.634,0.727-3.348,1.117-5.087,1.201c0,0-9.081-0.094-14.915-3.094
		s-10.104,2.783-10.104,2.783c4.542,7.499,3.941,16.925-2.027,22.802c-5.463,5.38-13.83,6.219-20.904,2.752
		c-6.383-3.354-14.186-5.878-22.882-11.67c-12.488-8.318-25.718-20.826-29.917-30.626c0,0-0.938-1.938-2.875-0.875
		s-14.75,7.5-27.5,7.5s-17.125-8-17.125-14.625c0-6.291,11.046-13.371,25.859-14.069L113.594,824.761z"/>
	
		<ellipse transform="matrix(-0.7125 0.7017 -0.7017 -0.7125 946.0123 1356.7332)" fill="#CD823B" stroke="#935619" stroke-width="2.5" stroke-linecap="round" stroke-linejoin="round" stroke-miterlimit="10" cx="195.042" cy="872.184" rx="18.03" ry="19.866"/>
	
		<path fill="#CD823B" stroke="#935619" stroke-width="2.5" stroke-linecap="round" stroke-linejoin="round" stroke-miterlimit="10" d="
		M216.551,849.939c-4.845-10.896-1.705-22.872,7.011-26.75c8.72-3.879,19.717,1.808,24.562,12.704
		c4.848,10.895,1.71,22.872-7.01,26.751C232.399,866.522,221.398,860.836,216.551,849.939z"/>
	
		<ellipse transform="matrix(-0.7584 0.6518 -0.6518 -0.7584 859.5383 1340.8838)" fill="#F1A55F" stroke="#935619" stroke-width="2.5" stroke-linecap="round" stroke-linejoin="round" stroke-miterlimit="10" cx="181.266" cy="829.738" rx="18.029" ry="19.865"/>
	<g>
		<path fill="#FFFFFF" d="M112.87,798.946c-2.263,0-4.104-1.841-4.104-4.104c0-2.263,1.841-4.104,4.104-4.104
			c2.263,0,4.104,1.841,4.104,4.104C116.974,797.105,115.133,798.946,112.87,798.946z"/>
		<path fill="#532B07" d="M112.87,791.988c1.574,0,2.854,1.28,2.854,2.854c0,1.574-1.28,2.854-2.854,2.854
			c-1.573,0-2.854-1.28-2.854-2.854C110.016,793.269,111.296,791.988,112.87,791.988 M112.87,789.488
			c-2.956,0-5.354,2.397-5.354,5.354c0,2.957,2.397,5.354,5.354,5.354c2.957,0,5.354-2.397,5.354-5.354
			C118.224,791.886,115.827,789.488,112.87,789.488L112.87,789.488z"/>
	</g>
	<circle fill="#FFFFFF" stroke="#532B07" stroke-width="2.5" stroke-miterlimit="10" cx="155.808" cy="764.988" r="7.958"/>
	
		<path fill="#F1A55F" stroke="#935619" stroke-width="2.5" stroke-linecap="round" stroke-linejoin="round" stroke-miterlimit="10" d="
		M139.107,820.804c3.6-1.345,7.174-3.024,10.667-5.046c11.46-6.633,20.155-15.859,25.34-25.843c0,0-10.932-24.178-34.682-6.595
		S139.107,820.804,139.107,820.804z"/>
	<path fill="none" stroke="#532B07" stroke-width="2.5" stroke-linecap="round" stroke-linejoin="round" stroke-miterlimit="10" d="
		M140.266,798.863c0,0,10.125,4.312,10.875-5.75c6.188,1.188,8.688-3.062,7.062-7.75"/>
	
		<ellipse transform="matrix(-0.7772 0.6293 -0.6293 -0.7772 749.7894 1303.8351)" fill="#532B07" cx="144.041" cy="784.673" rx="6.956" ry="5.479"/>
	<path fill="none" stroke="#935619" stroke-width="2.5" stroke-linecap="round" stroke-linejoin="round" stroke-miterlimit="10" d="
		M176.046,751.325c-4.533-7.83-11.888-13.265-20.718-16.123c-2.183-0.707,7.559-13.27,0.746-18.457
		c-6.312-4.438-17.312-3.375-20.938,0.875c-5.438,6.75,2.226,15.182-1.291,15.543c-8.834,0.906-18.022,3.816-26.71,8.847
		c-10.815,6.261-19.169,14.83-24.433,24.166c-1.3,2.307-4.023-6.514-11.524-6.514c-6.416,0-13.583,12.168-13.583,18.418
		c0,13.25,18.724,8.927,18.727,10.915c0.01,6.124,1.481,12.062,4.58,17.416c11.783,20.354,42.636,24.523,68.909,9.312
		C176.086,800.515,187.831,771.682,176.046,751.325z"/>
	
		<path fill="#FFFFFF" stroke="#532B07" stroke-width="2.5" stroke-linecap="round" stroke-linejoin="round" stroke-miterlimit="10" d="
		M153.933,761.187c0.666,0.333,0,1,0,1"/>
	
		<path fill="#FFFFFF" stroke="#532B07" stroke-width="2.5" stroke-linecap="round" stroke-linejoin="round" stroke-miterlimit="10" d="
		M159.183,763.374c0.666,0.333,0,1,0,1"/>
	
		<path fill="#FFFFFF" stroke="#532B07" stroke-width="2.5" stroke-linecap="round" stroke-linejoin="round" stroke-miterlimit="10" d="
		M152.047,765.926c0.666,0.333,0,1,0,1"/>
	
		<path fill="#FFFFFF" stroke="#532B07" stroke-width="2.5" stroke-linecap="round" stroke-linejoin="round" stroke-miterlimit="10" d="
		M157.297,768.113c0.666,0.333,0,1,0,1"/>
</g>
</svg>
