<?xml version="1.0" encoding="utf-8"?>
<!-- Generator: Adobe Illustrator 15.1.0, SVG Export Plug-In . SVG Version: 6.00 Build 0)  -->
<!DOCTYPE svg PUBLIC "-//W3C//DTD SVG 1.1//EN" "http://www.w3.org/Graphics/SVG/1.1/DTD/svg11.dtd">
<svg version="1.1" id="Layer_1" xmlns="http://www.w3.org/2000/svg" xmlns:xlink="http://www.w3.org/1999/xlink" x="0px" y="0px"
	 width="1000px" height="1000px" viewBox="0 0 1000 1000" enable-background="new 0 0 1000 1000" xml:space="preserve">
<path fill="#9CD37D" d="M422.07,331.404c-1.774-38.508,7.84-68.862,13.095-83.299c3.871-10.638,16.862-21.111,25.102-7.501
	c6.081,10.047,32.216,35.255,50.193-14.135c17.977-49.391-18.248-46.879-29.364-43.092c-15.061,5.13-18.279-11.244-14.409-21.88
	c5.255-14.437,17.402-43.871,43.513-72.229L268.064,1.137l-88.131,242.138c28.357,26.112,57.792,38.259,72.228,43.514
	c10.638,3.872,27.011,0.653,21.882-14.409c-3.787-11.116-6.299-47.341,43.091-29.364c49.39,17.977,24.182,44.112,14.136,50.193
	c-13.612,8.24-3.139,21.23,7.5,25.103c14.436,5.254,44.791,14.868,83.298,13.093L422.07,331.404z"/>
<g>
	<path fill="#9CD37D" d="M421.904,332.633c1.774,38.506-7.84,68.863-13.094,83.298c-3.872,10.638-16.863,21.112-25.102,7.501
		c-6.082-10.046-32.216-35.255-50.193,14.135c-17.977,49.39,18.248,46.878,29.365,43.091c15.061-5.129,18.279,11.245,14.407,21.882
		c-5.254,14.435-17.402,43.869-43.513,72.229c-28.359-26.111-57.792-38.26-72.228-43.515c-10.638-3.872-27.012-0.652-21.882,14.409
		c3.787,11.115,6.3,47.341-43.091,29.363c-49.39-17.976-24.182-44.111-14.135-50.192c13.611-8.24,3.137-21.231-7.5-25.104
		c-14.437-5.253-44.792-14.867-83.3-13.092l88.129-242.138c28.358,26.111,57.792,38.258,72.228,43.513
		c10.638,3.872,27.01,0.653,21.881-14.407c-3.787-11.117-6.299-47.34,43.091-29.364c49.391,17.978,24.182,44.11,14.136,50.193
		c-13.61,8.24-3.136,21.23,7.501,25.101c14.436,5.254,44.792,14.869,83.3,13.095L421.904,332.633z"/>
	<g>
		<defs>
			<path id="SVGID_1_" d="M421.725,332.358c1.774,38.506-7.839,68.863-13.094,83.299c-3.872,10.637-16.862,21.111-25.102,7.501
				c-6.081-10.047-32.216-35.257-50.193,14.134c-17.977,49.39,18.248,46.878,29.365,43.09c15.06-5.129,18.279,11.246,14.407,21.883
				c-5.254,14.435-17.402,43.869-43.513,72.228c-28.358-26.11-57.792-38.259-72.228-43.513
				c-10.637-3.872-27.012-0.653-21.882,14.408c3.787,11.115,6.299,47.341-43.091,29.364c-49.39-17.977-24.182-44.113-14.135-50.193
				c13.61-8.24,3.137-21.231-7.501-25.103c-14.437-5.254-44.792-14.867-83.3-13.093l88.128-242.137
				c28.357,26.11,57.792,38.258,72.228,43.512c10.638,3.872,27.011,0.654,21.882-14.407c-3.788-11.117-6.299-47.341,43.09-29.365
				c49.391,17.977,24.182,44.112,14.137,50.193c-13.611,8.239-3.137,21.23,7.5,25.101c14.436,5.254,44.792,14.869,83.299,13.095
				L421.725,332.358z"/>
		</defs>
		<clipPath id="SVGID_2_">
			<use xlink:href="#SVGID_1_"  overflow="visible"/>
		</clipPath>
		<path clip-path="url(#SVGID_2_)" fill="#70BF44" d="M230.972,377.364c0,0-58.042,159.47-60.812,167.078
			c-2.769,7.609,19.15,17.238,22.451,8.171c2.533-6.961,33.077-90.88,33.077-90.88l18.565,6.757c0,0-30.976,85.106-33.47,91.959
			c-2.495,6.855,19.816,15.403,22.449,8.17c2.632-7.23,61.676-169.454,61.676-169.454l42.947,45.214c0,0,5.377,5.377,11.952,1.417
			c6.577-3.964,66.702-42.215,66.702-42.215l1.702,17.488c0,0-43.686,60.246-48.771,66.831c-5.084,6.583-2.438,14.757,4.901,17.428
			c7.34,2.673,8.203,2.986,8.203,2.986s-32.33,88.826-36.456,100.16c-4.125,11.334,18.395,19.65,22.558,8.211
			c4.163-11.439,36.181-99.405,36.181-99.405l21.046,7.66c0,0-32.094,88.179-36.298,99.73c-4.205,11.55,18.914,20.57,23.313,8.484
			c4.399-12.087,36.181-99.405,36.181-99.405s6.044,2.2,11.656,4.243c5.612,2.043,11.326-2.234,12.043-9.918
			c0.719-7.683,5.265-84.988,5.265-84.988l13.311-12.391c0,0,23.391,71.493,25.148,76.992c1.758,5.498,6.989,8.502,12.628,4.597
			c5.639-3.906,59.892-41.64,59.892-41.64s-67.234,184.726-72.361,198.811c-5.126,14.085,24.339,24.81,29.466,10.724
			c5.127-14.084,40.188-110.414,40.188-110.414l21.693,7.896c0,0-34.354,94.387-40.188,110.414
			c-5.834,16.029,23.161,26.031,28.817,10.489c5.657-15.542,72.95-200.43,72.95-200.43l19.262,73.016l14.245,9.218l45.102-3.019
			l-4.334,22.991c0,0-30.648,43.235-34.458,48.329c-3.808,5.091-1.917,10.302,2.616,11.952c4.534,1.65,6.8,2.475,6.8,2.475
			s-23.275,63.95-26.28,72.207c-3.006,8.256,14.155,14.502,17.16,6.246c3.006-8.257,26.281-72.207,26.281-72.207l14.247,5.186
			c0,0-23.247,63.869-26.281,72.205c-3.034,8.34,14.391,14.864,17.485,6.365c3.093-8.5,26.398-72.53,26.398-72.53
			s2.592,0.944,8.095,2.947c5.505,2.003,7.814-2.659,8.099-9.152c0.284-6.495,3.698-59.526,3.698-59.526l9.778-18.809
			c0,0,28.423,23.913,37.085,31.1c8.659,7.186,16.942-2.727,9.423-9.772c-7.52-7.045-37.084-35.131-37.084-35.131
			s-4.766-5.035-10.271-7.04c-5.505-2.002-9.714-3.534-9.714-3.534s0.854-2.349,1.65-4.533c8.522-0.75,18.2-5.219,22.32-15.987
			c4.426-11.572-2.127-26.9-13.622-31.084c-11.494-4.184-27.129,3.079-31.114,14.712c-3.649,10.656,1.827,20.924,7.757,26.289
			c-0.795,2.188-1.768,4.858-1.768,4.858l-10.038-3.653c0,0-6.27-1.916-12.393-1.212c-6.124,0.705-42.6,3.197-42.6,3.197
			s-10.992-60.472-14.285-75.604c-3.292-15.133-14.325-38.217-37.315-46.584c0,0,0.825-2.267,1.925-5.29
			c11.692-0.387,25.434-6.161,31.107-21.74c4.71-12.933-3.045-33.194-19.559-39.204c-16.513-6.01-35.473,4.424-40.313,17.321
			c-5.945,15.835-0.842,30.771,9.387,37.427c-0.648,1.781-1.768,4.857-1.768,4.857s-27.316-13.609-57.086,10.759
			c-29.771,24.367-50.823,40.906-50.823,40.906l-26.528-90.328c0,0-2-6.595-9.771-9.423c-7.771-2.829-13.923-5.067-13.923-5.067
			s0.413-1.133,2.357-6.476c10.053,1.092,27.056-8.345,31.233-19.822c4.178-11.476,4.243-35.837-17.937-43.91
			c-22.18-8.073-40.084,8.878-44.562,21.183c-4.478,12.304,1.552,28.983,10.75,35.447c-1.237,3.401-2.356,6.476-2.356,6.476
			l-12.628-4.596c0,0-7.947-4.359-14.277-0.062c-6.332,4.296-85.244,55.88-85.244,55.88l-36.285-48.409c0,0-7.796-13.84-24.31-19.85
			l1.827-5.019c0,0,19.235-1.971,24.365-16.066c5.13-14.096,1.952-27.526-15.048-33.713c-16.998-6.187-28.243,2.543-33.251,16.305
			c-5.009,13.762,7.789,27.964,7.789,27.964s-1.119,3.076-1.708,4.696c-8.095-2.947-19.385-4.673-33.105-1.231
			c-13.719,3.441-69.156,15.715-69.156,15.715s-7.685,1.971-6.2,9.478c1.484,7.507,7.991,6.758,7.991,6.758L230.972,377.364z"/>
	</g>
</g>
<g>
	<path fill="#9CD37D" d="M665.847,421.211c-28.358-26.114-57.79-38.262-72.228-43.517c-10.637-3.871-27.012-0.652-21.881,14.411
		c3.787,11.115,6.299,47.34-43.093,29.364c-49.387-17.975-24.18-44.112-14.135-50.193c13.611-8.24,3.139-21.231-7.499-25.104
		c-14.437-5.254-44.791-14.867-83.301-13.091c1.774,38.505-7.84,68.862-13.095,83.299c-3.872,10.637-16.862,21.111-25.102,7.501
		c-6.081-10.047-32.217-35.256-50.193,14.134c-17.976,49.389,18.248,46.879,29.365,43.092c15.059-5.13,18.278,11.245,14.407,21.882
		c-5.255,14.436-17.403,43.87-43.513,72.228c28.356,26.111,57.791,38.26,72.227,43.515c10.637,3.871,27.012,0.649,21.88-14.41
		c-3.786-11.115-6.298-47.34,43.092-29.363c49.39,17.978,24.182,44.113,14.136,50.192c-13.612,8.239-3.137,21.231,7.499,25.103
		c14.437,5.255,44.791,14.869,83.302,13.094c-1.774-38.506,7.841-68.864,13.095-83.301c3.871-10.637,16.861-21.112,25.103-7.5
		c6.078,10.045,32.216,35.253,50.192-14.137s-18.25-46.878-29.363-43.09c-15.062,5.13-18.28-11.244-14.409-21.882
		C627.59,479,639.736,449.568,665.847,421.211z"/>
	<g>
		<defs>
			<path id="SVGID_3_" d="M665.595,421.122c-28.357-26.114-57.79-38.261-72.229-43.516c-10.635-3.872-27.01-0.653-21.88,14.41
				c3.787,11.115,6.298,47.341-43.092,29.364c-49.388-17.975-24.18-44.113-14.137-50.193c13.612-8.24,3.14-21.231-7.499-25.103
				c-14.437-5.255-44.79-14.868-83.299-13.093c1.773,38.507-7.84,68.863-13.095,83.3c-3.872,10.637-16.862,21.111-25.102,7.501
				c-6.082-10.048-32.217-35.256-50.193,14.134c-17.976,49.39,18.248,46.88,29.365,43.092c15.06-5.129,18.28,11.244,14.408,21.88
				c-5.254,14.438-17.404,43.87-43.513,72.229c28.357,26.112,57.791,38.26,72.228,43.514c10.636,3.872,27.011,0.652,21.88-14.408
				c-3.787-11.115-6.298-47.341,43.092-29.364c49.391,17.977,24.182,44.112,14.136,50.193c-13.611,8.238-3.137,21.23,7.5,25.102
				c14.437,5.255,44.792,14.868,83.3,13.095c-1.774-38.508,7.841-68.865,13.095-83.301c3.873-10.638,16.863-21.112,25.104-7.502
				c6.078,10.046,32.216,35.256,50.192-14.134c17.977-49.392-18.25-46.881-29.363-43.092c-15.062,5.13-18.281-11.244-14.409-21.882
				C627.339,478.911,639.484,449.479,665.595,421.122z"/>
		</defs>
		<clipPath id="SVGID_4_">
			<use xlink:href="#SVGID_3_"  overflow="visible"/>
		</clipPath>
		<path clip-path="url(#SVGID_4_)" fill="#70BF44" d="M231.034,377.947c0,0-58.041,159.467-60.81,167.075
			c-2.77,7.61,19.152,17.239,22.453,8.173c2.533-6.961,33.078-90.882,33.078-90.882l18.566,6.757c0,0-30.976,85.105-33.471,91.961
			c-2.495,6.855,19.821,15.405,22.453,8.173s61.677-169.456,61.677-169.456l42.94,45.214c0,0,5.382,5.373,11.952,1.414
			c6.581-3.963,66.705-42.214,66.705-42.214l1.701,17.487c0,0-43.683,60.248-48.772,66.829c-5.083,6.584-2.436,14.761,4.9,17.431
			c7.344,2.673,8.208,2.988,8.208,2.988s-32.331,88.827-36.456,100.161c-4.125,11.334,18.394,19.646,22.557,8.209
			c4.162-11.436,36.181-99.407,36.181-99.407l21.049,7.661c0,0-32.094,88.178-36.3,99.732c-4.203,11.548,18.911,20.57,23.31,8.484
			c4.399-12.087,36.181-99.408,36.181-99.408s6.044,2.2,11.658,4.243c5.608,2.041,11.321-2.229,12.043-9.916
			c0.713-7.681,5.265-84.991,5.265-84.991l13.312-12.391c0,0,23.384,71.498,25.149,76.992c1.756,5.501,6.988,8.502,12.627,4.596
			c5.637-3.904,59.892-41.638,59.892-41.638s-67.234,184.728-72.36,198.808c-5.128,14.089,24.337,24.813,29.465,10.726
			c5.126-14.082,40.186-110.409,40.186-110.409l21.692,7.895c0,0-34.354,94.384-40.187,110.409
			c-5.835,16.031,23.164,26.035,28.82,10.49c5.656-15.538,72.95-200.427,72.95-200.427l19.26,73.017l14.247,9.219l45.101-3.021
			l-4.335,22.994c0,0-30.645,43.232-34.458,48.328c-3.81,5.09-1.916,10.298,2.613,11.947c4.537,1.65,6.806,2.477,6.806,2.477
			s-23.277,63.952-26.284,72.212c-3.003,8.253,14.151,14.496,17.155,6.244c3.006-8.261,26.283-72.213,26.283-72.213l14.253,5.188
			c0,0-23.248,63.872-26.283,72.213c-3.033,8.333,14.388,14.858,17.479,6.361c3.096-8.503,26.398-72.529,26.398-72.529
			s2.594,0.944,8.099,2.946c5.505,2.005,7.812-2.661,8.103-9.158c0.279-6.489,3.692-59.524,3.692-59.524l9.781-18.805
			c0,0,28.423,23.907,37.083,31.101c8.663,7.187,16.94-2.728,9.422-9.772c-7.517-7.045-37.079-35.134-37.079-35.134
			s-4.77-5.032-10.274-7.036c-5.503-2.002-9.716-3.535-9.716-3.535s0.855-2.35,1.652-4.537c8.521-0.746,18.197-5.216,22.319-15.989
			c4.427-11.566-2.126-26.896-13.622-31.08c-11.497-4.184-27.125,3.079-31.109,14.716c-3.651,10.652,1.823,20.92,7.753,26.282
			c-0.796,2.188-1.77,4.862-1.77,4.862l-10.033-3.652c0,0-6.272-1.915-12.393-1.214c-6.131,0.706-42.604,3.192-42.604,3.192
			s-10.99-60.468-14.286-75.598c-3.292-15.138-14.319-38.22-37.312-46.588c0,0,0.823-2.26,1.926-5.289
			c11.689-0.39,25.435-6.155,31.105-21.737c4.708-12.937-3.045-33.195-19.56-39.206c-16.512-6.011-35.47,4.426-40.313,17.322
			c-5.94,15.835-0.842,30.769,9.386,37.428c-0.648,1.781-1.767,4.854-1.767,4.854s-27.319-13.608-57.088,10.757
			c-29.771,24.373-50.817,40.91-50.817,40.91l-26.529-90.33c0,0-2-6.594-9.772-9.423c-7.773-2.829-13.927-5.068-13.927-5.068
			s0.411-1.13,2.355-6.472c10.061,1.092,27.06-8.349,31.237-19.823c4.175-11.474,4.242-35.839-17.938-43.912
			c-22.18-8.073-40.08,8.881-44.558,21.182c-4.48,12.309,1.549,28.986,10.744,35.445c-1.239,3.406-2.358,6.479-2.358,6.479
			l-12.626-4.595c0,0-7.944-4.356-14.275-0.067c-6.333,4.296-85.242,55.883-85.242,55.883l-36.289-48.408
			c0,0-7.797-13.841-24.311-19.851l1.826-5.016c0,0,19.243-1.974,24.372-16.064c5.13-14.096,1.946-27.53-15.055-33.718
			c-16.993-6.185-28.245,2.546-33.252,16.304c-5.01,13.764,7.792,27.97,7.792,27.97s-1.119,3.074-1.708,4.692
			c-8.097-2.948-19.385-4.672-33.104-1.231c-13.719,3.439-69.158,15.718-69.158,15.718s-7.685,1.963-6.201,9.473
			c1.484,7.51,7.991,6.757,7.991,6.757L231.034,377.947z"/>
	</g>
</g>
<g>
	<path fill="#9CD37D" d="M578.629,663.744c38.507-1.774,68.864,7.84,83.299,13.094c10.637,3.871,21.112,16.863,7.502,25.103
		c-10.047,6.082-35.255,32.216,14.134,50.192c49.393,17.978,46.878-18.247,43.094-29.362c-5.131-15.062,11.243-18.282,21.878-14.411
		c14.439,5.256,43.871,17.405,72.229,43.516l88.131-242.137c-38.507,1.773-68.865-7.842-83.301-13.095
		c-10.636-3.872-21.112-16.863-7.502-25.103c10.049-6.081,35.256-32.216-14.132-50.192c-49.394-17.978-46.88,18.248-43.094,29.363
		c5.129,15.061-11.242,18.279-21.879,14.408c-14.44-5.255-43.87-17.402-72.229-43.512c-26.114,28.355-38.261,57.79-43.515,72.226
		c-3.873,10.639-0.651,27.012,14.409,21.883c11.114-3.788,47.34-6.3,29.363,43.092c-17.977,49.389-44.112,24.181-50.19,14.134
		c-8.242-13.61-21.233-3.136-25.105,7.502C586.466,594.878,576.852,625.235,578.629,663.744L578.629,663.744z"/>
	<g>
		<defs>
			<path id="SVGID_5_" d="M578.627,663.679c38.507-1.772,68.864,7.84,83.299,13.094c10.637,3.871,21.112,16.863,7.503,25.104
				c-10.048,6.08-35.255,32.216,14.134,50.192c49.392,17.977,46.878-18.248,43.093-29.363c-5.13-15.062,11.243-18.281,21.879-14.41
				c14.438,5.256,43.87,17.403,72.229,43.514l88.13-242.136c-38.506,1.773-68.865-7.841-83.301-13.096
				c-10.635-3.87-21.111-16.862-7.5-25.101c10.047-6.081,35.255-32.216-14.134-50.191c-49.392-17.978-46.878,18.247-43.094,29.363
				c5.129,15.061-11.242,18.28-21.879,14.409c-14.439-5.257-43.869-17.402-72.228-43.513c-26.113,28.356-38.262,57.79-43.516,72.227
				c-3.873,10.637-0.652,27.011,14.409,21.881c11.115-3.787,47.34-6.3,29.363,43.091c-17.977,49.39-44.113,24.181-50.191,14.136
				c-8.24-13.611-21.232-3.137-25.104,7.501C586.465,594.813,576.85,625.17,578.627,663.679L578.627,663.679z"/>
		</defs>
		<clipPath id="SVGID_6_">
			<use xlink:href="#SVGID_5_"  overflow="visible"/>
		</clipPath>
		<path clip-path="url(#SVGID_6_)" fill="#70BF44" d="M231.091,377.41c0,0-58.042,159.467-60.811,167.076
			c-2.77,7.61,19.153,17.236,22.452,8.171c2.533-6.959,33.079-90.882,33.079-90.882l18.567,6.758c0,0-30.976,85.105-33.471,91.961
			c-2.496,6.854,19.821,15.404,22.453,8.172c2.632-7.233,61.677-169.456,61.677-169.456l42.94,45.215c0,0,5.382,5.372,11.952,1.413
			c6.581-3.964,66.704-42.215,66.704-42.215l1.701,17.488c0,0-43.683,60.248-48.772,66.83c-5.083,6.583-2.436,14.759,4.9,17.429
			c7.344,2.674,8.209,2.988,8.209,2.988s-32.331,88.828-36.456,100.162c-4.125,11.334,18.393,19.646,22.556,8.209
			c4.163-11.437,36.182-99.407,36.182-99.407l21.05,7.661c0,0-32.095,88.178-36.301,99.733c-4.203,11.548,18.911,20.571,23.31,8.484
			c4.4-12.088,36.182-99.409,36.182-99.409s6.043,2.2,11.658,4.243c5.607,2.041,11.321-2.229,12.042-9.915
			c0.713-7.682,5.266-84.992,5.266-84.992l13.312-12.39c0,0,23.383,71.498,25.148,76.992c1.754,5.501,6.988,8.502,12.626,4.596
			c5.639-3.903,59.894-41.638,59.894-41.638s-67.235,184.728-72.36,198.81c-5.129,14.088,24.336,24.812,29.463,10.724
			c5.126-14.082,40.187-110.41,40.187-110.41l21.693,7.895c0,0-34.354,94.386-40.186,110.41
			c-5.837,16.032,23.162,26.035,28.819,10.49c5.655-15.537,72.95-200.427,72.95-200.427l19.258,73.017l14.249,9.219l45.101-3.021
			l-4.336,22.995c0,0-30.645,43.231-34.458,48.327c-3.81,5.091-1.915,10.299,2.614,11.947c4.535,1.65,6.804,2.476,6.804,2.476
			s-23.276,63.952-26.283,72.213c-3.004,8.252,14.152,14.496,17.155,6.244c3.007-8.26,26.284-72.213,26.284-72.213l14.251,5.188
			c0,0-23.247,63.871-26.284,72.213c-3.032,8.334,14.39,14.857,17.481,6.362c3.096-8.504,26.399-72.53,26.399-72.53
			s2.593,0.943,8.098,2.947c5.504,2.004,7.812-2.661,8.102-9.158c0.279-6.491,3.693-59.526,3.693-59.526l9.78-18.805
			c0,0,28.424,23.909,37.085,31.103c8.661,7.186,16.938-2.729,9.422-9.774c-7.519-7.045-37.08-35.133-37.08-35.133
			s-4.77-5.032-10.274-7.035c-5.505-2.004-9.715-3.536-9.715-3.536s0.854-2.35,1.651-4.537c8.521-0.747,18.196-5.216,22.318-15.99
			c4.427-11.565-2.125-26.895-13.621-31.078c-11.495-4.185-27.125,3.079-31.11,14.715c-3.649,10.652,1.825,20.92,7.755,26.283
			c-0.796,2.186-1.77,4.861-1.77,4.861l-10.033-3.652c0,0-6.272-1.915-12.393-1.214c-6.131,0.705-42.604,3.192-42.604,3.192
			s-10.989-60.468-14.285-75.598c-3.292-15.137-14.319-38.219-37.312-46.587c0,0,0.822-2.261,1.926-5.29
			c11.688-0.39,25.434-6.155,31.104-21.737c4.709-12.937-3.045-33.195-19.557-39.206c-16.513-6.009-35.473,4.426-40.316,17.322
			c-5.939,15.836-0.841,30.769,9.386,37.428c-0.647,1.781-1.767,4.854-1.767,4.854s-27.318-13.608-57.086,10.757
			c-29.772,24.373-50.819,40.909-50.819,40.909l-26.527-90.33c0,0-2-6.593-9.773-9.422c-7.771-2.828-13.927-5.069-13.927-5.069
			s0.412-1.13,2.356-6.472c10.06,1.093,27.061-8.349,31.235-19.823c4.177-11.473,4.242-35.839-17.937-43.912
			c-22.18-8.073-40.08,8.881-44.557,21.182c-4.48,12.309,1.548,28.986,10.743,35.446c-1.239,3.406-2.358,6.479-2.358,6.479
			l-12.626-4.595c0,0-7.945-4.356-14.274-0.067c-6.333,4.297-85.242,55.883-85.242,55.883l-36.289-48.408
			c0,0-7.797-13.841-24.31-19.851l1.826-5.016c0,0,19.243-1.974,24.371-16.063c5.131-14.097,1.946-27.531-15.054-33.719
			c-16.993-6.185-28.245,2.546-33.252,16.304c-5.01,13.764,7.792,27.971,7.792,27.971s-1.119,3.074-1.708,4.691
			c-8.098-2.948-19.385-4.671-33.104-1.231c-13.719,3.439-69.159,15.718-69.159,15.718s-7.684,1.963-6.2,9.474
			c1.483,7.509,7.991,6.757,7.991,6.757L231.091,377.41z"/>
	</g>
</g>
<g>
	<path fill="#9CD37D" d="M423.916,332.275c38.507-1.774,68.864,7.839,83.298,13.093c10.638,3.872,21.11,16.862,7.5,25.103
		c-10.046,6.082-35.253,32.218,14.137,50.193c49.39,17.977,46.877-18.249,43.091-29.364c-5.129-15.06,11.244-18.28,21.882-14.408
		c14.436,5.254,43.871,17.403,72.228,43.514c26.11-28.358,38.259-57.792,43.513-72.229c3.872-10.638,0.653-27.011-14.407-21.881
		c-11.118,3.786-47.342,6.298-29.365-43.092c17.977-49.391,44.11-24.183,50.193-14.135c8.24,13.611,21.23,3.137,25.103-7.501
		c5.254-14.436,14.869-44.791,13.095-83.299L512.044,90.138c-26.111,28.358-38.258,57.792-43.513,72.229
		c-3.872,10.637-0.653,27.011,14.408,21.881c11.116-3.788,47.34-6.299,29.363,43.092c-17.976,49.389-44.11,24.181-50.192,14.134
		c-8.239-13.61-21.229-3.137-25.101,7.501C431.753,263.412,422.14,293.767,423.916,332.275z"/>
	<g>
		<defs>
			<path id="SVGID_7_" d="M423.808,332.036c38.507-1.772,68.863,7.841,83.298,13.094c10.638,3.872,21.11,16.862,7.5,25.103
				c-10.046,6.081-35.253,32.218,14.137,50.193c49.39,17.977,46.877-18.248,43.091-29.364c-5.129-15.062,11.244-18.28,21.881-14.409
				c14.437,5.254,43.871,17.403,72.228,43.513c26.112-28.358,38.261-57.791,43.515-72.228c3.872-10.638,0.653-27.01-14.408-21.881
				c-11.117,3.787-47.341,6.298-29.364-43.092c17.977-49.391,44.11-24.182,50.193-14.135c8.24,13.61,21.231,3.136,25.103-7.5
				c5.253-14.437,14.868-44.793,13.093-83.3L511.938,89.899c-26.112,28.358-38.26,57.792-43.514,72.229
				c-3.872,10.637-0.653,27.011,14.408,21.881c11.116-3.788,47.34-6.3,29.364,43.092c-17.977,49.389-44.11,24.181-50.193,14.135
				c-8.239-13.611-21.229-3.138-25.101,7.5C431.646,263.173,422.032,293.528,423.808,332.036z"/>
		</defs>
		<clipPath id="SVGID_8_">
			<use xlink:href="#SVGID_7_"  overflow="visible"/>
		</clipPath>
		<path clip-path="url(#SVGID_8_)" fill="#70BF44" d="M231.07,377.407c0,0-58.041,159.466-60.811,167.075
			c-2.77,7.61,19.153,17.238,22.452,8.173c2.534-6.96,33.079-90.882,33.079-90.882l18.566,6.757c0,0-30.976,85.105-33.471,91.962
			c-2.495,6.856,19.821,15.404,22.453,8.173c2.633-7.233,61.677-169.457,61.677-169.457l42.94,45.215c0,0,5.382,5.373,11.952,1.414
			c6.581-3.964,66.705-42.215,66.705-42.215l1.701,17.487c0,0-43.683,60.249-48.772,66.83c-5.083,6.585-2.436,14.76,4.9,17.43
			c7.344,2.673,8.208,2.987,8.208,2.987s-32.331,88.829-36.456,100.161c-4.125,11.335,18.394,19.648,22.557,8.211
			c4.162-11.438,36.181-99.408,36.181-99.408l21.049,7.662c0,0-32.094,88.178-36.3,99.733c-4.203,11.547,18.91,20.57,23.309,8.483
			c4.4-12.089,36.182-99.408,36.182-99.408s6.043,2.198,11.658,4.243c5.608,2.041,11.321-2.229,12.043-9.916
			c0.713-7.681,5.265-84.992,5.265-84.992l13.312-12.391c0,0,23.384,71.499,25.148,76.993c1.755,5.5,6.988,8.501,12.627,4.596
			c5.639-3.904,59.893-41.639,59.893-41.639s-67.234,184.728-72.361,198.81c-5.127,14.089,24.337,24.812,29.464,10.723
			c5.126-14.081,40.186-110.409,40.186-110.409l21.694,7.896c0,0-34.354,94.384-40.187,110.409
			c-5.835,16.032,23.164,26.034,28.821,10.49c5.655-15.538,72.949-200.427,72.949-200.427l19.258,73.016l14.249,9.22l45.102-3.021
			l-4.336,22.993c0,0-30.645,43.231-34.458,48.329c-3.81,5.088-1.916,10.297,2.613,11.945c4.535,1.65,6.804,2.476,6.804,2.476
			s-23.276,63.953-26.282,72.213c-3.004,8.253,14.151,14.497,17.155,6.244c3.006-8.259,26.283-72.212,26.283-72.212l14.251,5.188
			c0,0-23.247,63.87-26.283,72.212c-3.033,8.333,14.389,14.858,17.481,6.362c3.095-8.504,26.398-72.529,26.398-72.529
			s2.593,0.943,8.099,2.946c5.503,2.004,7.812-2.661,8.102-9.158c0.278-6.49,3.692-59.524,3.692-59.524l9.78-18.805
			c0,0,28.425,23.907,37.085,31.102c8.661,7.185,16.938-2.729,9.423-9.775c-7.52-7.044-37.081-35.133-37.081-35.133
			s-4.77-5.031-10.274-7.035c-5.504-2.004-9.715-3.535-9.715-3.535s0.855-2.351,1.65-4.537c8.522-0.748,18.198-5.216,22.319-15.99
			c4.427-11.566-2.126-26.895-13.621-31.079c-11.496-4.184-27.125,3.079-31.109,14.714c-3.649,10.653,1.824,20.922,7.754,26.285
			c-0.796,2.186-1.77,4.86-1.77,4.86l-10.032-3.651c0,0-6.273-1.915-12.394-1.215c-6.132,0.704-42.604,3.193-42.604,3.193
			s-10.99-60.469-14.285-75.598c-3.291-15.138-14.318-38.219-37.312-46.588c0,0,0.822-2.26,1.925-5.291
			c11.688-0.388,25.434-6.154,31.105-21.737c4.708-12.936-3.045-33.194-19.559-39.204c-16.512-6.01-35.472,4.425-40.315,17.32
			c-5.939,15.836-0.84,30.769,9.387,37.428c-0.648,1.781-1.768,4.854-1.768,4.854s-27.319-13.608-57.086,10.758
			c-29.771,24.372-50.819,40.909-50.819,40.909l-26.527-90.33c0,0-2-6.594-9.773-9.423c-7.772-2.83-13.926-5.069-13.926-5.069
			s0.411-1.13,2.355-6.472c10.061,1.092,27.06-8.35,31.236-19.824c4.176-11.473,4.242-35.839-17.937-43.912
			c-22.18-8.072-40.081,8.88-44.558,21.183c-4.48,12.308,1.549,28.986,10.744,35.445c-1.24,3.406-2.359,6.48-2.359,6.48
			l-12.625-4.596c0,0-7.945-4.355-14.275-0.068c-6.333,4.298-85.243,55.883-85.243,55.883l-36.289-48.408
			c0,0-7.797-13.84-24.31-19.85l1.826-5.017c0,0,19.244-1.974,24.372-16.063c5.131-14.097,1.946-27.53-15.054-33.717
			c-16.993-6.185-28.245,2.546-33.252,16.303c-5.01,13.765,7.792,27.971,7.792,27.971s-1.119,3.074-1.708,4.691
			c-8.097-2.947-19.385-4.67-33.104-1.23c-13.718,3.441-69.159,15.718-69.159,15.718s-7.684,1.964-6.201,9.473
			c1.484,7.51,7.991,6.757,7.991,6.757L231.07,377.407z"/>
	</g>
</g>
<g>
	<path fill="#9CD37D" d="M667.192,420.659c26.111-28.358,38.26-57.791,43.514-72.228c3.872-10.638,0.65-27.011-14.409-21.882
		c-11.116,3.788-47.341,6.3-29.364-43.09c17.978-49.392,44.112-24.183,50.192-14.137c8.24,13.611,21.232,3.138,25.104-7.5
		c5.255-14.436,14.868-44.792,13.094-83.299l242.136,88.13l-88.131,242.138c-38.508,1.773-68.862-7.839-83.302-13.095
		c-10.636-3.871-21.108-16.862-7.496-25.102c10.043-6.081,35.255-32.215-14.138-50.193c-49.389-17.976-46.877,18.249-43.089,29.364
		c5.128,15.062-11.245,18.281-21.885,14.409c-14.435-5.254-43.868-17.401-72.226-43.513V420.659z"/>
	<g>
		<defs>
			<path id="SVGID_9_" d="M667.104,420.589c26.111-28.358,38.26-57.791,43.515-72.229c3.871-10.637,0.65-27.012-14.411-21.881
				c-11.113,3.788-47.339,6.3-29.362-43.09c17.977-49.392,44.112-24.183,50.192-14.136c8.239,13.61,21.231,3.137,25.103-7.5
				c5.255-14.436,14.868-44.793,13.095-83.301l242.135,88.13l-88.13,242.138c-38.508,1.775-68.863-7.839-83.302-13.094
				c-10.636-3.872-21.109-16.862-7.497-25.101c10.044-6.083,35.255-32.217-14.138-50.193
				c-49.389-17.977-46.876,18.248-43.089,29.364c5.129,15.061-11.245,18.28-21.884,14.408
				c-14.436-5.254-43.868-17.402-72.226-43.513L667.104,420.589z"/>
		</defs>
		<clipPath id="SVGID_10_">
			<use xlink:href="#SVGID_9_"  overflow="visible"/>
		</clipPath>
		<path clip-path="url(#SVGID_10_)" fill="#70BF44" d="M231.135,378.053c0,0-58.041,159.467-60.81,167.076
			c-2.771,7.611,19.152,17.238,22.452,8.172c2.533-6.959,33.078-90.881,33.078-90.881l18.566,6.757c0,0-30.976,85.105-33.471,91.963
			c-2.496,6.854,19.821,15.404,22.453,8.171c2.633-7.232,61.677-169.456,61.677-169.456l42.94,45.215c0,0,5.381,5.373,11.952,1.414
			c6.581-3.964,66.705-42.214,66.705-42.214l1.701,17.487c0,0-43.683,60.248-48.772,66.83c-5.082,6.584-2.435,14.76,4.901,17.43
			c7.344,2.673,8.208,2.987,8.208,2.987s-32.331,88.828-36.455,100.162c-4.126,11.333,18.393,19.646,22.556,8.21
			c4.163-11.438,36.181-99.408,36.181-99.408l21.049,7.662c0,0-32.095,88.177-36.3,99.732c-4.203,11.547,18.91,20.571,23.31,8.484
			c4.399-12.089,36.182-99.408,36.182-99.408s6.043,2.199,11.659,4.243c5.608,2.04,11.321-2.23,12.043-9.916
			c0.713-7.681,5.264-84.991,5.264-84.991l13.312-12.391c0,0,23.384,71.499,25.148,76.993c1.756,5.5,6.988,8.501,12.627,4.596
			c5.639-3.904,59.894-41.64,59.894-41.64s-67.235,184.729-72.361,198.81c-5.128,14.088,24.336,24.813,29.464,10.725
			c5.126-14.082,40.187-110.409,40.187-110.409l21.692,7.894c0,0-34.354,94.386-40.186,110.41
			c-5.836,16.033,23.163,26.035,28.82,10.49c5.655-15.537,72.95-200.426,72.95-200.426l19.258,73.016l14.248,9.219l45.102-3.021
			l-4.336,22.995c0,0-30.645,43.231-34.458,48.328c-3.81,5.09-1.916,10.297,2.613,11.946c4.536,1.65,6.805,2.476,6.805,2.476
			s-23.276,63.953-26.283,72.212c-3.003,8.254,14.152,14.498,17.155,6.245c3.007-8.26,26.284-72.213,26.284-72.213l14.252,5.188
			c0,0-23.248,63.871-26.284,72.212c-3.032,8.334,14.388,14.859,17.481,6.363c3.095-8.504,26.397-72.53,26.397-72.53
			s2.594,0.944,8.098,2.948c5.505,2.002,7.813-2.663,8.104-9.159c0.278-6.49,3.692-59.525,3.692-59.525l9.78-18.805
			c0,0,28.424,23.908,37.085,31.102c8.661,7.186,16.939-2.729,9.421-9.773c-7.518-7.045-37.079-35.134-37.079-35.134
			s-4.771-5.032-10.275-7.035c-5.503-2.003-9.715-3.535-9.715-3.535s0.855-2.35,1.651-4.537c8.521-0.747,18.197-5.216,22.32-15.99
			c4.427-11.566-2.127-26.896-13.622-31.079c-11.496-4.185-27.125,3.079-31.109,14.714c-3.65,10.654,1.824,20.922,7.753,26.284
			c-0.795,2.187-1.77,4.862-1.77,4.862l-10.032-3.652c0,0-6.273-1.916-12.394-1.215c-6.131,0.705-42.604,3.193-42.604,3.193
			s-10.99-60.469-14.286-75.599c-3.292-15.137-14.319-38.219-37.311-46.588c0,0,0.822-2.26,1.925-5.29
			c11.688-0.389,25.434-6.155,31.104-21.736c4.709-12.936-3.045-33.195-19.558-39.205c-16.513-6.01-35.472,4.426-40.315,17.321
			c-5.94,15.836-0.842,30.77,9.387,37.429c-0.648,1.78-1.767,4.854-1.767,4.854s-27.319-13.608-57.087,10.757
			c-29.772,24.373-50.818,40.909-50.818,40.909l-26.528-90.33c0,0-2.001-6.594-9.773-9.423c-7.772-2.829-13.927-5.068-13.927-5.068
			s0.411-1.13,2.355-6.473c10.061,1.093,27.061-8.348,31.236-19.822c4.177-11.474,4.243-35.839-17.937-43.912
			c-22.18-8.073-40.081,8.881-44.557,21.183c-4.48,12.309,1.548,28.986,10.744,35.445c-1.24,3.406-2.359,6.479-2.359,6.479
			l-12.626-4.595c0,0-7.944-4.356-14.275-0.066c-6.333,4.295-85.242,55.882-85.242,55.882l-36.289-48.407
			c0,0-7.797-13.841-24.311-19.851l1.826-5.017c0,0,19.244-1.973,24.372-16.063c5.13-14.096,1.945-27.53-15.055-33.718
			c-16.993-6.185-28.245,2.546-33.252,16.303c-5.01,13.764,7.792,27.97,7.792,27.97s-1.119,3.074-1.708,4.692
			c-8.098-2.948-19.385-4.671-33.105-1.232c-13.717,3.442-69.158,15.719-69.158,15.719s-7.685,1.963-6.201,9.473
			c1.484,7.509,7.992,6.757,7.992,6.757L231.135,378.053z"/>
	</g>
</g>
<g>
	<path fill="#9CD37D" d="M333.122,575.987c-26.112,28.357-38.259,57.79-43.514,72.228c-3.872,10.639-0.653,27.011,14.408,21.883
		c11.117-3.789,47.34-6.302,29.364,43.091c-17.977,49.39-44.111,24.181-50.193,14.135c-8.24-13.61-21.231-3.138-25.103,7.5
		c-5.254,14.437-14.869,44.792-13.094,83.3L2.855,729.993l88.13-242.136c38.508-1.777,68.864,7.837,83.3,13.091
		c10.638,3.872,21.11,16.863,7.5,25.104c-10.046,6.08-35.255,32.216,14.135,50.192c49.39,17.976,46.879-18.249,43.092-29.363
		c-5.129-15.062,11.243-18.283,21.882-14.41c14.436,5.254,43.868,17.401,72.226,43.516H333.122z"/>
	<g>
		<defs>
			<path id="SVGID_11_" d="M333.019,576.073c-26.111,28.355-38.259,57.789-43.513,72.227c-3.873,10.638-0.653,27.011,14.408,21.882
				c11.117-3.788,47.34-6.3,29.364,43.091s-44.111,24.181-50.193,14.136c-8.24-13.609-21.23-3.138-25.103,7.5
				c-5.253,14.437-14.868,44.792-13.094,83.3L2.751,730.077l88.131-242.135c38.508-1.777,68.864,7.837,83.3,13.091
				c10.638,3.872,21.111,16.863,7.5,25.105c-10.046,6.078-35.255,32.215,14.135,50.19c49.39,17.977,46.879-18.247,43.092-29.362
				c-5.13-15.063,11.243-18.282,21.882-14.41C275.228,537.811,304.66,549.958,333.019,576.073L333.019,576.073z"/>
		</defs>
		<clipPath id="SVGID_12_">
			<use xlink:href="#SVGID_11_"  overflow="visible"/>
		</clipPath>
		<path clip-path="url(#SVGID_12_)" fill="#70BF44" d="M230.967,377.366c0,0-58.041,159.467-60.811,167.077
			c-2.77,7.609,19.153,17.237,22.453,8.171c2.533-6.959,33.079-90.882,33.079-90.882l18.566,6.758c0,0-30.976,85.105-33.472,91.962
			c-2.495,6.855,19.821,15.404,22.454,8.172c2.632-7.233,61.676-169.456,61.676-169.456l42.94,45.214c0,0,5.382,5.373,11.952,1.415
			c6.581-3.965,66.705-42.215,66.705-42.215l1.7,17.487c0,0-43.682,60.248-48.772,66.83c-5.082,6.584-2.435,14.76,4.901,17.429
			c7.344,2.674,8.208,2.988,8.208,2.988s-32.331,88.827-36.456,100.161c-4.125,11.335,18.394,19.647,22.556,8.21
			c4.163-11.437,36.181-99.407,36.181-99.407l21.05,7.661c0,0-32.095,88.178-36.3,99.733c-4.203,11.548,18.91,20.571,23.309,8.484
			c4.4-12.088,36.182-99.409,36.182-99.409s6.043,2.199,11.658,4.243c5.608,2.041,11.321-2.229,12.042-9.916
			c0.714-7.681,5.265-84.991,5.265-84.991l13.313-12.391c0,0,23.383,71.498,25.149,76.993c1.754,5.5,6.987,8.501,12.625,4.595
			c5.64-3.904,59.894-41.638,59.894-41.638s-67.235,184.728-72.36,198.81c-5.128,14.088,24.336,24.812,29.463,10.723
			c5.125-14.082,40.187-110.409,40.187-110.409l21.692,7.895c0,0-34.353,94.386-40.186,110.411
			c-5.835,16.031,23.163,26.034,28.821,10.489c5.656-15.537,72.949-200.427,72.949-200.427l19.258,73.017l14.249,9.219l45.102-3.021
			l-4.336,22.995c0,0-30.646,43.231-34.459,48.327c-3.81,5.091-1.915,10.298,2.613,11.947c4.537,1.65,6.805,2.477,6.805,2.477
			s-23.276,63.951-26.283,72.212c-3.004,8.252,14.152,14.497,17.156,6.244c3.007-8.26,26.283-72.213,26.283-72.213l14.251,5.188
			c0,0-23.247,63.871-26.283,72.213c-3.032,8.333,14.389,14.858,17.48,6.363c3.096-8.505,26.399-72.531,26.399-72.531
			s2.594,0.943,8.098,2.947s7.812-2.661,8.102-9.159c0.279-6.491,3.692-59.525,3.692-59.525l9.782-18.804
			c0,0,28.423,23.908,37.084,31.102c8.662,7.187,16.939-2.729,9.422-9.774c-7.519-7.045-37.08-35.133-37.08-35.133
			s-4.769-5.032-10.273-7.035c-5.505-2.004-9.715-3.536-9.715-3.536s0.854-2.35,1.65-4.537c8.521-0.747,18.196-5.216,22.317-15.99
			c4.429-11.565-2.124-26.895-13.619-31.078c-11.496-4.185-27.126,3.079-31.11,14.714c-3.65,10.653,1.824,20.922,7.754,26.284
			c-0.795,2.187-1.77,4.861-1.77,4.861l-10.033-3.651c0,0-6.271-1.915-12.393-1.216c-6.131,0.706-42.604,3.194-42.604,3.194
			s-10.99-60.469-14.285-75.599c-3.291-15.137-14.319-38.22-37.312-46.588c0,0,0.823-2.261,1.926-5.291
			c11.689-0.389,25.435-6.155,31.105-21.735c4.709-12.938-3.046-33.196-19.558-39.206c-16.513-6.01-35.473,4.425-40.317,17.321
			c-5.938,15.837-0.84,30.769,9.387,37.428c-0.647,1.781-1.767,4.854-1.767,4.854s-27.318-13.608-57.087,10.757
			c-29.771,24.372-50.818,40.909-50.818,40.909l-26.528-90.33c0,0-2-6.594-9.772-9.422c-7.771-2.83-13.927-5.069-13.927-5.069
			s0.413-1.131,2.356-6.472c10.061,1.094,27.06-8.349,31.235-19.823c4.177-11.473,4.243-35.839-17.937-43.912
			c-22.18-8.073-40.081,8.881-44.557,21.182c-4.48,12.309,1.548,28.987,10.743,35.445c-1.239,3.406-2.358,6.48-2.358,6.48
			l-12.626-4.596c0,0-7.944-4.356-14.275-0.067c-6.333,4.297-85.242,55.882-85.242,55.882l-36.289-48.407
			c0,0-7.797-13.841-24.31-19.852l1.826-5.015c0,0,19.243-1.974,24.372-16.064c5.13-14.096,1.946-27.53-15.055-33.718
			c-16.992-6.185-28.245,2.546-33.252,16.303c-5.01,13.764,7.792,27.97,7.792,27.97s-1.119,3.074-1.708,4.692
			c-8.097-2.948-19.385-4.671-33.104-1.231c-13.719,3.441-69.159,15.719-69.159,15.719s-7.684,1.964-6.201,9.473
			c1.483,7.51,7.991,6.756,7.991,6.756L230.967,377.366z"/>
	</g>
</g>
<g>
	<path fill="#9CD37D" d="M576.725,665.053c-38.508,1.773-68.864-7.84-83.301-13.095c-10.637-3.871-21.109-16.864-7.499-25.103
		c10.045-6.081,35.255-32.217-14.135-50.194c-49.39-17.977-46.879,18.249-43.092,29.365c5.129,15.06-11.245,18.281-21.882,14.408
		c-14.435-5.253-43.868-17.402-72.226-43.513c-26.111,28.358-38.258,57.791-43.513,72.229c-3.872,10.637-0.653,27.011,14.407,21.881
		c11.117-3.788,47.341-6.3,29.364,43.091c-17.977,49.391-44.11,24.182-50.193,14.137c-8.239-13.611-21.229-3.138-25.101,7.499
		c-5.254,14.438-14.868,44.793-13.094,83.3l242.135,88.13c26.112-28.357,38.261-57.791,43.515-72.227
		c3.872-10.637,0.653-27.011-14.409-21.882c-11.115,3.786-47.34,6.298-29.363-43.092c17.976-49.389,44.11-24.182,50.191-14.135
		c8.243,13.611,21.232,3.138,25.104-7.501C568.887,733.915,578.5,703.56,576.725,665.053z"/>
	<g>
		<defs>
			<path id="SVGID_13_" d="M576.891,664.834c-38.509,1.773-68.865-7.839-83.301-13.094c-10.638-3.872-21.11-16.864-7.501-25.104
				c10.046-6.08,35.256-32.216-14.134-50.192c-49.39-17.977-46.879,18.249-43.092,29.364c5.13,15.06-11.244,18.28-21.881,14.408
				c-14.436-5.253-43.869-17.401-72.227-43.512c-26.112,28.357-38.259,57.789-43.513,72.227
				c-3.873,10.639-0.653,27.012,14.407,21.882c11.117-3.787,47.341-6.3,29.365,43.091c-17.977,49.391-44.111,24.182-50.193,14.136
				c-8.24-13.61-21.23-3.137-25.102,7.5c-5.254,14.437-14.868,44.792-13.094,83.3l242.135,88.131
				c26.113-28.358,38.261-57.792,43.515-72.228c3.872-10.638,0.653-27.011-14.41-21.882c-11.114,3.786-47.34,6.299-29.363-43.093
				c17.977-49.388,44.111-24.181,50.192-14.134c8.242,13.611,21.232,3.137,25.105-7.501
				C569.053,733.697,578.665,703.342,576.891,664.834z"/>
		</defs>
		<clipPath id="SVGID_14_">
			<use xlink:href="#SVGID_13_"  overflow="visible"/>
		</clipPath>
		<path clip-path="url(#SVGID_14_)" fill="#70BF44" d="M231.095,377.971c0,0-58.041,159.467-60.811,167.076
			c-2.769,7.609,19.154,17.238,22.453,8.172c2.533-6.96,33.079-90.883,33.079-90.883l18.566,6.759c0,0-30.976,85.105-33.471,91.96
			c-2.495,6.856,19.821,15.404,22.453,8.173c2.633-7.233,61.678-169.456,61.678-169.456l42.94,45.214c0,0,5.382,5.373,11.952,1.414
			c6.581-3.964,66.705-42.214,66.705-42.214l1.7,17.487c0,0-43.682,60.248-48.771,66.83c-5.083,6.584-2.436,14.759,4.9,17.429
			c7.344,2.674,8.209,2.988,8.209,2.988s-32.332,88.828-36.456,100.16c-4.126,11.335,18.394,19.648,22.556,8.211
			c4.163-11.437,36.181-99.407,36.181-99.407l21.05,7.661c0,0-32.095,88.179-36.3,99.733c-4.203,11.547,18.91,20.57,23.31,8.484
			c4.4-12.089,36.182-99.409,36.182-99.409s6.043,2.2,11.658,4.244c5.608,2.041,11.321-2.23,12.043-9.916
			c0.713-7.682,5.265-84.991,5.265-84.991l13.312-12.392c0,0,23.383,71.498,25.149,76.992c1.756,5.501,6.988,8.503,12.626,4.596
			c5.639-3.904,59.894-41.638,59.894-41.638s-67.235,184.728-72.36,198.809c-5.128,14.089,24.335,24.812,29.464,10.724
			c5.125-14.081,40.186-110.409,40.186-110.409l21.691,7.896c0,0-34.353,94.384-40.186,110.409
			c-5.835,16.033,23.163,26.035,28.822,10.49c5.654-15.538,72.948-200.427,72.948-200.427l19.259,73.016l14.249,9.22l45.102-3.021
			l-4.337,22.994c0,0-30.646,43.23-34.458,48.328c-3.811,5.089-1.916,10.297,2.614,11.945c4.536,1.652,6.804,2.478,6.804,2.478
			s-23.277,63.952-26.283,72.212c-3.003,8.252,14.152,14.496,17.155,6.243c3.007-8.259,26.283-72.212,26.283-72.212l14.252,5.188
			c0,0-23.247,63.871-26.282,72.212c-3.033,8.334,14.388,14.859,17.479,6.362c3.096-8.503,26.399-72.529,26.399-72.529
			s2.593,0.944,8.097,2.947c5.505,2.004,7.812-2.662,8.103-9.158c0.279-6.491,3.694-59.524,3.694-59.524l9.78-18.806
			c0,0,28.422,23.908,37.083,31.102c8.663,7.186,16.939-2.729,9.423-9.773c-7.519-7.046-37.081-35.134-37.081-35.134
			s-4.77-5.031-10.272-7.036c-5.505-2.003-9.716-3.535-9.716-3.535s0.855-2.35,1.651-4.537c8.521-0.747,18.196-5.216,22.319-15.989
			c4.428-11.567-2.126-26.896-13.622-31.079c-11.496-4.185-27.125,3.079-31.108,14.714c-3.651,10.652,1.823,20.921,7.753,26.284
			c-0.796,2.186-1.77,4.861-1.77,4.861l-10.033-3.651c0,0-6.273-1.915-12.394-1.215c-6.13,0.704-42.604,3.193-42.604,3.193
			s-10.99-60.469-14.285-75.599c-3.292-15.137-14.32-38.22-37.312-46.587c0,0,0.823-2.261,1.926-5.291
			c11.688-0.389,25.434-6.155,31.105-21.736c4.708-12.937-3.046-33.196-19.559-39.206c-16.513-6.009-35.473,4.426-40.315,17.322
			c-5.94,15.835-0.841,30.77,9.386,37.428c-0.647,1.781-1.767,4.855-1.767,4.855s-27.318-13.608-57.087,10.757
			c-29.772,24.373-50.817,40.909-50.817,40.909l-26.528-90.329c0,0-2.001-6.594-9.774-9.423c-7.772-2.829-13.926-5.069-13.926-5.069
			s0.411-1.13,2.355-6.472c10.06,1.094,27.06-8.349,31.237-19.823c4.176-11.473,4.241-35.839-17.938-43.911
			c-22.18-8.073-40.081,8.881-44.558,21.182c-4.48,12.308,1.548,28.986,10.744,35.445c-1.24,3.406-2.359,6.48-2.359,6.48
			l-12.626-4.596c0,0-7.943-4.356-14.274-0.067c-6.333,4.297-85.242,55.882-85.242,55.882l-36.289-48.408
			c0,0-7.797-13.84-24.311-19.851l1.826-5.016c0,0,19.244-1.974,24.372-16.064c5.13-14.096,1.946-27.53-15.055-33.717
			c-16.993-6.185-28.245,2.546-33.251,16.304c-5.011,13.764,7.792,27.97,7.792,27.97s-1.119,3.074-1.708,4.691
			c-8.097-2.947-19.385-4.67-33.104-1.23c-13.719,3.441-69.159,15.719-69.159,15.719s-7.685,1.963-6.201,9.472
			c1.484,7.51,7.992,6.757,7.992,6.757L231.095,377.971z"/>
	</g>
</g>
<g>
	<path fill="#9CD37D" d="M578.519,665.311c1.774,38.508-7.838,68.863-13.094,83.299c-3.872,10.639-16.864,21.111-25.104,7.502
		c-6.079-10.047-32.215-35.256-50.192,14.135c-17.977,49.391,18.249,46.878,29.363,43.092c15.061-5.13,18.282,11.244,14.41,21.881
		c-5.254,14.437-17.401,43.871-43.513,72.229l242.134,88.129l88.131-242.135c-28.357-26.113-57.789-38.261-72.228-43.517
		c-10.636-3.871-27.01-0.651-21.88,14.411c3.785,11.114,6.3,47.34-43.093,29.363c-49.39-17.977-24.18-44.112-14.134-50.191
		c13.61-8.242,3.137-21.233-7.502-25.105C647.383,673.148,617.027,663.534,578.519,665.311L578.519,665.311z"/>
	<g>
		<defs>
			<path id="SVGID_15_" d="M578.053,665.258c1.775,38.507-7.84,68.862-13.094,83.299c-3.872,10.639-16.863,21.111-25.104,7.501
				c-6.08-10.048-32.215-35.257-50.192,14.136c-17.977,49.39,18.248,46.877,29.363,43.091c15.061-5.129,18.282,11.243,14.41,21.881
				c-5.255,14.437-17.402,43.87-43.514,72.229l242.136,88.13l88.129-242.137c-28.356-26.112-57.789-38.261-72.229-43.516
				c-10.636-3.87-27.008-0.65-21.877,14.413c3.784,11.111,6.298,47.339-43.094,29.361c-49.389-17.977-24.18-44.112-14.135-50.191
				c13.611-8.242,3.137-21.233-7.501-25.104C646.918,673.095,616.562,663.481,578.053,665.258L578.053,665.258z"/>
		</defs>
		<clipPath id="SVGID_16_">
			<use xlink:href="#SVGID_15_"  overflow="visible"/>
		</clipPath>
		<path clip-path="url(#SVGID_16_)" fill="#70BF44" d="M231.157,377.886c0,0-58.042,159.468-60.812,167.077
			c-2.769,7.61,19.154,17.236,22.453,8.171c2.533-6.959,33.079-90.881,33.079-90.881l18.566,6.757c0,0-30.975,85.104-33.471,91.961
			c-2.495,6.856,19.821,15.404,22.454,8.173c2.633-7.235,61.677-169.458,61.677-169.458l42.94,45.216c0,0,5.382,5.372,11.952,1.414
			c6.581-3.965,66.705-42.215,66.705-42.215l1.701,17.487c0,0-43.683,60.249-48.772,66.83c-5.082,6.585-2.435,14.76,4.9,17.43
			c7.345,2.673,8.209,2.988,8.209,2.988s-32.332,88.828-36.456,100.162c-4.125,11.333,18.394,19.646,22.556,8.209
			C373,605.77,405.019,517.8,405.019,517.8l21.05,7.661c0,0-32.094,88.178-36.3,99.734c-4.203,11.547,18.91,20.57,23.309,8.483
			c4.4-12.088,36.182-99.408,36.182-99.408s6.043,2.198,11.658,4.242c5.607,2.042,11.321-2.229,12.043-9.915
			c0.712-7.681,5.265-84.992,5.265-84.992l13.312-12.391c0,0,23.384,71.498,25.148,76.993c1.756,5.5,6.988,8.501,12.628,4.596
			c5.638-3.905,59.893-41.639,59.893-41.639s-67.235,184.728-72.36,198.809c-5.129,14.089,24.335,24.812,29.463,10.724
			c5.126-14.081,40.186-110.409,40.186-110.409l21.693,7.896c0,0-34.353,94.385-40.186,110.408
			c-5.836,16.034,23.163,26.036,28.82,10.491c5.655-15.537,72.95-200.427,72.95-200.427l19.258,73.017l14.249,9.219l45.101-3.021
			l-4.336,22.995c0,0-30.646,43.231-34.458,48.328c-3.81,5.09-1.916,10.297,2.613,11.946c4.536,1.65,6.805,2.476,6.805,2.476
			s-23.275,63.953-26.283,72.213c-3.004,8.253,14.152,14.497,17.155,6.244c3.007-8.259,26.284-72.213,26.284-72.213l14.251,5.188
			c0,0-23.247,63.87-26.283,72.212c-3.032,8.334,14.388,14.859,17.481,6.362c3.095-8.505,26.398-72.53,26.398-72.53
			s2.593,0.943,8.097,2.947c5.505,2.004,7.813-2.661,8.104-9.158c0.278-6.491,3.692-59.525,3.692-59.525l9.78-18.805
			c0,0,28.423,23.908,37.084,31.102c8.662,7.187,16.94-2.729,9.423-9.774c-7.519-7.045-37.08-35.133-37.08-35.133
			s-4.77-5.033-10.274-7.035c-5.503-2.004-9.715-3.536-9.715-3.536s0.854-2.35,1.65-4.538c8.521-0.746,18.197-5.214,22.32-15.988
			c4.427-11.567-2.126-26.896-13.622-31.079c-11.496-4.185-27.125,3.078-31.109,14.714c-3.65,10.653,1.824,20.921,7.753,26.284
			c-0.795,2.187-1.769,4.861-1.769,4.861l-10.033-3.651c0,0-6.272-1.916-12.394-1.216c-6.131,0.705-42.604,3.194-42.604,3.194
			s-10.99-60.469-14.286-75.6c-3.291-15.137-14.319-38.219-37.31-46.588c0,0,0.821-2.26,1.924-5.29
			c11.688-0.39,25.434-6.155,31.105-21.737c4.708-12.936-3.046-33.195-19.559-39.205c-16.513-6.01-35.472,4.425-40.316,17.321
			c-5.938,15.836-0.84,30.77,9.388,37.429c-0.648,1.78-1.767,4.854-1.767,4.854s-27.319-13.609-57.087,10.757
			c-29.772,24.373-50.818,40.91-50.818,40.91l-26.528-90.33c0,0-2-6.594-9.773-9.423c-7.772-2.829-13.927-5.069-13.927-5.069
			s0.412-1.13,2.355-6.472c10.062,1.092,27.061-8.349,31.237-19.823c4.176-11.474,4.242-35.839-17.937-43.912
			c-22.181-8.073-40.081,8.88-44.558,21.183c-4.48,12.309,1.548,28.986,10.743,35.445c-1.239,3.406-2.358,6.479-2.358,6.479
			l-12.626-4.595c0,0-7.944-4.355-14.275-0.067c-6.333,4.297-85.242,55.883-85.242,55.883l-36.289-48.408
			c0,0-7.797-13.84-24.31-19.85l1.826-5.017c0,0,19.244-1.975,24.372-16.064c5.131-14.097,1.945-27.53-15.054-33.718
			c-16.992-6.185-28.246,2.546-33.252,16.304c-5.01,13.764,7.792,27.97,7.792,27.97s-1.118,3.073-1.708,4.692
			c-8.097-2.948-19.384-4.672-33.104-1.231c-13.719,3.441-69.159,15.718-69.159,15.718s-7.685,1.963-6.201,9.473
			c1.484,7.51,7.992,6.757,7.992,6.757L231.157,377.886z"/>
	</g>
</g>
</svg>
