<?xml version="1.0" encoding="utf-8"?>
<!-- Generator: Adobe Illustrator 15.1.0, SVG Export Plug-In . SVG Version: 6.00 Build 0)  -->
<!DOCTYPE svg PUBLIC "-//W3C//DTD SVG 1.1//EN" "http://www.w3.org/Graphics/SVG/1.1/DTD/svg11.dtd">
<svg version="1.1" id="Layer_1" xmlns="http://www.w3.org/2000/svg" xmlns:xlink="http://www.w3.org/1999/xlink" x="0px" y="0px"
	 width="1060.023px" height="1198.795px" viewBox="0 0 1060.023 1198.795" enable-background="new 0 0 1060.023 1198.795"
	 xml:space="preserve">
<polyline fill="none" stroke="#6A6A6A" stroke-width="15" stroke-linecap="round" stroke-linejoin="round" stroke-miterlimit="10" points="
	347.927,899.316 386.231,917.18 426.289,831.278 "/>
<g>
	
		<rect x="147.473" y="100.765" transform="matrix(0.9397 -0.342 0.342 0.9397 -173.0423 217.4225)" fill="#E5A061" width="765.078" height="997.265"/>
	
		<rect x="213.838" y="207.628" transform="matrix(0.9397 -0.342 0.342 0.9397 -176.21 218.3976)" fill="#FFF9DC" width="634.707" height="802.476"/>
	<path fill="#C0C0C0" d="M627.205,180.636c-3.485,1.269-438.679,159.666-441.499,160.692c-2.82,1.025-4.28-0.765-4.409-4.241
		c-0.13-3.478-1.603-45.628-1.685-47.999c-0.083-2.371,1.032-5.256,3.141-6.645c16.343-10.766,87.87-57.894,88.894-58.593
		c1.156-0.791,1.713-2.294,1.223-3.638c-0.489-1.343-20.138-54.85-21.334-58.139c-1.198-3.29-1.522-6.249,2.776-7.813
		c48.285-17.574,19.274-109.646,67.168-127.078c47.896-17.432,88.56,70.362,134.126,53.776c4.064-1.479,5.52-0.889,7.359,4.161
		c1.837,5.051,20.828,56.742,21.336,58.139c0.509,1.397,1.473,2.36,3.021,2.094c1.351-0.234,82.913-9.39,103.659-11.717
		c3.027-0.34,5.963,0.885,7.871,3.452c1.908,2.568,27.073,34.764,29.485,37.75C630.748,177.825,630.688,179.368,627.205,180.636z
		 M332.211,56.266c-13.148,4.786-19.928,19.322-15.143,32.47c4.785,13.146,19.322,19.926,32.47,15.141
		c13.147-4.785,19.927-19.322,15.142-32.47C359.896,58.26,345.355,51.481,332.211,56.266z"/>
	<g>
		<path fill="#6A6A6A" d="M175.866,432.137c-0.431-1.184,0.358-2.173,2.727-3.035l2.989-1.088c1.634-0.595,3.074-0.672,4.104,0.23
			l16.346,14.034l3.614-21.298c0.209-1.353,1.361-2.22,2.998-2.814l2.93-1.068c2.369-0.862,3.609-0.612,4.04,0.573l13.134,36.083
			c0.431,1.185-0.359,2.173-2.728,3.036l-1.635,0.595c-2.368,0.862-3.609,0.612-4.04-0.572l-8.495-23.341l-0.245,0.025
			l-2.861,17.578c-0.26,0.86-0.794,1.501-1.864,1.891l-1.636,0.595c-1.071,0.391-1.891,0.243-2.645-0.249l-13.49-11.628
			l-0.205,0.139l8.495,23.342c0.432,1.184-0.358,2.174-2.726,3.035l-1.635,0.595c-2.367,0.862-3.608,0.611-4.039-0.572
			L175.866,432.137z"/>
		<path fill="#6A6A6A" d="M238.426,418.242c8.851-3.223,14.619,2.276,17.473,10.114c0.35,0.958-0.934,4.105-1.665,4.373
			l-14.377,5.233c2.037,4.367,4.974,4.894,8.639,3.559c3.551-1.292,5.396-3.943,6.186-4.231c1.241-0.45,4.081,2.092,4.49,3.219
			c1.026,2.819-5.513,6.604-8.669,7.753c-10.206,3.714-16.871-0.563-20.174-9.641C226.284,427.513,230.363,421.177,238.426,418.242z
			 M246.958,429.055c-1.189-3.27-3.312-5.242-6.131-4.217c-2.369,0.863-3.905,2.955-3.003,7.541L246.958,429.055z"/>
		<path fill="#6A6A6A" d="M260.634,427.333c-3.344-9.189-1.234-16.726,6.376-19.495c2.65-0.964,4.896-0.761,6.387-0.346
			l-4.555-12.515c-0.431-1.184,0.357-2.175,2.727-3.037l1.577-0.574c2.368-0.863,3.609-0.609,4.04,0.574l11.204,30.782
			c2.114,5.807,3.222,6.744,3.651,7.929c0.493,1.353-4.248,3.588-5.657,4.102c-1.805,0.656-2.779-1.67-3.65-3.014
			c-0.414,2.898-2.521,5.707-6.017,6.979C270.629,440.937,264.204,437.144,260.634,427.333z M280.128,425.985l-4.576-12.573
			c-1.089-0.179-2.589-0.271-4.337,0.366c-3.552,1.293-4.177,4.839-2.124,10.478c1.99,5.469,4.523,7.866,7.624,6.739
			C278.857,430.214,279.75,428.103,280.128,425.985z"/>
		<path fill="#6A6A6A" d="M285.671,394.023l-1.661-4.568c-0.433-1.184,0.357-2.173,2.726-3.035l1.577-0.574
			c2.369-0.861,3.609-0.61,4.041,0.574l1.661,4.566c0.431,1.184-0.357,2.174-2.727,3.036l-1.578,0.575
			C287.343,395.458,286.102,395.207,285.671,394.023z M288.708,402.367c-0.432-1.184,0.358-2.173,2.726-3.035l1.578-0.575
			c2.369-0.862,3.608-0.611,4.04,0.574l9.501,26.103c0.431,1.184-0.357,2.175-2.727,3.035l-1.578,0.575
			c-2.367,0.862-3.608,0.611-4.039-0.573L288.708,402.367z"/>
		<path fill="#6A6A6A" d="M322.339,400.916l-0.677-1.86c-0.78-2.143-2.467-2.741-5.567-1.612c-4.114,1.497-5.884,4.185-6.56,4.431
			c-1.183,0.431-4.144-2.259-4.574-3.445c-0.697-1.916,3.096-5.53,9.353-7.809c8.908-3.242,13.559-0.465,15.55,5.003l3.858,10.6
			c2.112,5.807,3.22,6.745,3.651,7.929c0.492,1.353-4.249,3.589-5.659,4.102c-1.804,0.658-2.777-1.669-3.67-3.068
			c-0.129,0.875-1.543,5.413-6.729,7.3c-6.089,2.217-9.658-0.571-11.341-5.194C308.292,412.669,308.02,406.129,322.339,400.916z
			 M321.677,414.885c2.143-0.779,3.619-3.041,3.781-5.398l-1.129-3.102c-5.355,1.949-7.359,4.339-6.374,7.045
			C318.468,414.839,319.816,415.562,321.677,414.885z"/>
		<path fill="#6A6A6A" d="M337.178,390.28l-0.903,0.328c-1.184,0.431-1.999-0.229-2.717-2.202l-0.349-0.958
			c-0.719-1.976-0.519-3.006,0.666-3.437l0.902-0.327l-1.219-5.624c-0.262-1.245,0.528-2.234,2.388-2.912l1.748-0.636
			c1.974-0.718,3.044-0.406,3.476,0.778l1.949,5.356l2.763-1.006c1.184-0.431,2.001,0.231,2.718,2.204l0.349,0.958
			c0.719,1.975,0.519,3.004-0.665,3.436l-2.764,1.005l5.213,14.32c0.615,1.691,1.446,2.22,2.912,1.687
			c0.508-0.186,1.102-0.658,1.44-0.781c1.128-0.411,3.062,2.972,3.226,3.424c0.943,2.593-2.659,4.097-4.407,4.732
			c-5.301,1.93-9.277,0.12-11.556-6.138L337.178,390.28z"/>
		<path fill="#6A6A6A" d="M350.622,370.383l-1.661-4.566c-0.431-1.184,0.356-2.174,2.726-3.037l1.579-0.575
			c2.366-0.861,3.609-0.609,4.04,0.574l1.661,4.566c0.431,1.184-0.359,2.173-2.728,3.036l-1.577,0.574
			C352.294,371.816,351.053,371.565,350.622,370.383z M353.659,378.727c-0.432-1.184,0.358-2.174,2.727-3.036l1.578-0.575
			c2.368-0.862,3.609-0.611,4.04,0.574l9.501,26.103c0.431,1.184-0.359,2.174-2.728,3.036l-1.578,0.575
			c-2.367,0.862-3.608,0.611-4.039-0.573L353.659,378.727z"/>
		<path fill="#6A6A6A" d="M380.562,366.508c8.964-3.262,15.594,0.391,19.164,10.2c3.571,9.811,0.86,16.927-8.104,20.188
			c-8.964,3.264-15.671-0.426-19.241-10.235C368.811,376.852,371.598,369.772,380.562,366.508z M391.27,379.786
			c-2.055-5.638-4.697-7.995-8.307-6.68c-3.608,1.312-4.176,4.838-2.125,10.476c2.053,5.638,4.775,8.032,8.385,6.718
			C392.831,388.987,393.32,385.424,391.27,379.786z"/>
		<path fill="#6A6A6A" d="M403.846,369.781c-2.052-5.638-3.16-6.575-3.57-7.703c-0.492-1.353,4.25-3.589,5.658-4.103
			c1.804-0.655,2.738,1.559,3.589,2.846c0.856-2.739,3.177-6.009,6.841-7.343c5.638-2.052,9.334-0.143,11.612,6.115l6.956,19.113
			c0.432,1.185-0.357,2.174-2.726,3.036l-1.58,0.575c-2.366,0.861-3.607,0.611-4.038-0.574l-6.505-17.873
			c-0.801-2.199-2.175-3.166-4.655-2.264c-2.312,0.841-3.115,3.369-3.32,4.912l6.588,18.097c0.431,1.184-0.359,2.174-2.727,3.035
			l-1.578,0.575c-2.369,0.862-3.609,0.611-4.039-0.573L403.846,369.781z"/>
		<path fill="#6A6A6A" d="M453.674,363.011c1.016-0.369,4.72,1.219,9.231-0.423c2.424-0.883,5.032-2.662,3.802-6.045
			c-2.422-6.652-17.771,1.872-22.594-11.378c-3.017-8.288,2.559-14.019,9.154-16.421c5.977-2.174,10.906-1.607,11.585,0.254
			c0.554,1.522,0.038,5.54-1.314,6.034c-0.734,0.266-2.993-0.509-6.771,0.867c-4.398,1.602-4.504,3.937-4.032,5.235
			c2.339,6.428,17.688-2.096,22.511,11.153c3.406,9.358-2.041,14.916-8.188,17.154c-8.569,3.119-14.355,1.777-15.054-0.14
			C451.368,367.553,452.489,363.442,453.674,363.011z"/>
		<path fill="#6A6A6A" d="M473.806,334.996c-0.432-1.183,0.359-2.173,2.728-3.035l1.578-0.574c2.368-0.863,3.608-0.612,4.039,0.572
			l6.506,17.874c0.801,2.197,2.175,3.166,4.654,2.263c2.312-0.841,3.115-3.368,3.32-4.912l-6.588-18.096
			c-0.431-1.185,0.358-2.174,2.727-3.037l1.578-0.574c2.368-0.861,3.609-0.611,4.04,0.574l6.505,17.872
			c2.113,5.807,3.221,6.746,3.651,7.929c0.492,1.354-4.248,3.589-5.657,4.103c-1.805,0.656-2.778-1.669-3.671-3.069
			c-0.855,2.736-3.177,6.008-6.842,7.342c-5.639,2.052-9.334,0.141-11.612-6.117L473.806,334.996z"/>
		<path fill="#6A6A6A" d="M502.174,315.222l-1.662-4.566c-0.431-1.183,0.358-2.174,2.727-3.036l1.578-0.576
			c2.369-0.86,3.608-0.608,4.039,0.575l1.662,4.566c0.431,1.183-0.358,2.174-2.728,3.036l-1.578,0.574
			C503.846,316.656,502.604,316.405,502.174,315.222z M505.211,323.567c-0.433-1.184,0.358-2.175,2.726-3.035l1.578-0.576
			c2.369-0.862,3.609-0.61,4.04,0.574l9.501,26.103c0.431,1.185-0.358,2.174-2.727,3.036l-1.579,0.574
			c-2.367,0.861-3.608,0.611-4.039-0.573L505.211,323.567z"/>
		<path fill="#6A6A6A" d="M522.951,322.665l-0.902,0.329c-1.184,0.43-1.998-0.23-2.717-2.204l-0.349-0.959
			c-0.719-1.974-0.52-3.004,0.664-3.435l0.903-0.328l-1.218-5.623c-0.26-1.245,0.528-2.234,2.389-2.912l1.749-0.636
			c1.972-0.719,3.043-0.406,3.475,0.777l1.948,5.356l2.765-1.006c1.184-0.431,1.998,0.23,2.716,2.204l0.35,0.959
			c0.718,1.973,0.518,3.004-0.666,3.435l-2.763,1.006l5.212,14.32c0.616,1.691,1.447,2.219,2.912,1.685
			c0.508-0.185,1.102-0.657,1.44-0.779c1.129-0.411,3.062,2.973,3.226,3.423c0.944,2.594-2.659,4.097-4.407,4.732
			c-5.3,1.93-9.277,0.121-11.556-6.138L522.951,322.665z"/>
		<path fill="#6A6A6A" d="M558.125,315.099l-0.677-1.862c-0.78-2.144-2.468-2.74-5.568-1.613c-4.116,1.498-5.884,4.185-6.562,4.432
			c-1.184,0.431-4.141-2.26-4.572-3.444c-0.697-1.917,3.094-5.531,9.354-7.809c8.907-3.242,13.558-0.466,15.548,5.002l3.858,10.6
			c2.113,5.808,3.221,6.745,3.651,7.93c0.492,1.353-4.248,3.589-5.658,4.102c-1.804,0.656-2.777-1.67-3.672-3.067
			c-0.127,0.875-1.54,5.412-6.727,7.3c-6.09,2.216-9.658-0.57-11.341-5.195C544.077,326.85,543.804,320.31,558.125,315.099z
			 M557.463,329.066c2.143-0.78,3.617-3.041,3.781-5.401l-1.129-3.099c-5.357,1.95-7.36,4.338-6.375,7.045
			C554.253,329.021,555.602,329.744,557.463,329.066z"/>
		<path fill="#6A6A6A" d="M565.857,286.871c-0.431-1.184,0.356-2.174,2.726-3.035l1.579-0.573c2.367-0.864,3.608-0.612,4.039,0.571
			l4.555,12.517c0.877-1.276,2.466-2.875,5.115-3.84c7.61-2.771,14.071,1.646,17.417,10.835c3.569,9.81,1.085,16.844-5.004,19.061
			c-3.495,1.271-6.915,0.474-9.094-1.479l0.319,2.63c0.169,1.343-0.934,2-2.737,2.656l-0.677,0.246
			c-2.369,0.861-3.608,0.611-4.038-0.573L565.857,286.871z M591.321,316.486c3.101-1.129,3.499-4.593,1.509-10.062
			c-2.053-5.637-4.811-7.953-8.362-6.659c-1.748,0.635-2.839,1.671-3.557,2.507l4.576,12.572
			C587.139,316.223,589.18,317.267,591.321,316.486z"/>
		<path fill="#6A6A6A" d="M599.206,279.906l-1.663-4.567c-0.431-1.183,0.359-2.173,2.726-3.036l1.578-0.574
			c2.37-0.861,3.61-0.61,4.04,0.573l1.662,4.566c0.432,1.184-0.358,2.175-2.727,3.037l-1.578,0.575
			C600.876,281.34,599.636,281.089,599.206,279.906z M602.242,288.25c-0.431-1.185,0.358-2.173,2.726-3.036l1.578-0.575
			c2.37-0.862,3.609-0.611,4.041,0.574l9.501,26.103c0.43,1.185-0.359,2.174-2.728,3.036l-1.578,0.575
			c-2.368,0.861-3.608,0.611-4.039-0.572L602.242,288.25z"/>
		<path fill="#6A6A6A" d="M612.71,269.818c-0.431-1.184,0.356-2.173,2.725-3.035l1.578-0.574c2.367-0.862,3.609-0.611,4.04,0.573
			l11.697,32.136c0.615,1.693,1.446,2.219,2.911,1.686c0.508-0.184,1.103-0.656,1.44-0.779c1.129-0.412,3.06,2.972,3.225,3.423
			c0.943,2.594-2.659,4.096-4.406,4.733c-5.301,1.929-9.277,0.119-11.555-6.138L612.71,269.818z"/>
		<path fill="#6A6A6A" d="M630.891,268.374l-1.662-4.568c-0.431-1.184,0.358-2.174,2.727-3.035l1.578-0.575
			c2.368-0.861,3.609-0.61,4.04,0.573l1.662,4.567c0.431,1.184-0.358,2.173-2.728,3.036l-1.578,0.573
			C632.562,269.808,631.321,269.558,630.891,268.374z M633.928,276.717c-0.431-1.184,0.358-2.174,2.725-3.035l1.579-0.574
			c2.369-0.863,3.61-0.611,4.041,0.572l9.501,26.104c0.431,1.185-0.358,2.174-2.727,3.035l-1.578,0.575
			c-2.368,0.862-3.608,0.611-4.039-0.573L633.928,276.717z"/>
		<path fill="#6A6A6A" d="M651.669,275.815l-0.902,0.328c-1.183,0.431-1.999-0.229-2.717-2.202l-0.35-0.959
			c-0.719-1.974-0.517-3.005,0.667-3.436l0.901-0.328l-1.218-5.622c-0.262-1.246,0.529-2.235,2.39-2.913l1.748-0.636
			c1.972-0.718,3.043-0.405,3.474,0.778l1.949,5.356l2.763-1.006c1.184-0.431,2,0.23,2.718,2.204l0.349,0.959
			c0.718,1.974,0.519,3.003-0.665,3.434l-2.764,1.006l5.213,14.32c0.614,1.691,1.447,2.22,2.912,1.687
			c0.508-0.185,1.102-0.657,1.44-0.78c1.128-0.411,3.062,2.971,3.226,3.423c0.943,2.593-2.66,4.096-4.406,4.734
			c-5.302,1.928-9.278,0.118-11.557-6.14L651.669,275.815z"/>
		<path fill="#6A6A6A" d="M665.777,265.636c-0.256-0.354-0.491-0.651-0.594-0.933c-0.288-0.788,0.618-1.631,2.988-2.492l1.802-0.657
			c1.637-0.595,2.979-0.765,3.591,0.036l7.121,9.219c0.866,1.153,2.672,4.006,4.062,6.246l0.226-0.082
			c-0.375-2.609-0.848-6.013-0.904-7.396l-0.471-11.641c-0.046-1.006,1.092-1.739,2.728-2.334l1.353-0.492
			c2.369-0.862,3.548-0.78,3.836,0.009c0.103,0.283,0.168,0.642,0.198,1.077l0.839,42.473c-0.01,1.025-1.093,1.738-2.726,2.334
			l-0.96,0.348c-2.311,0.843-3.546,0.78-3.812,0.049c-0.104-0.282-0.17-0.641-0.146-1.099l0.125-10.706L665.777,265.636z"/>
	</g>
</g>
<!-- checklist 1 -->
<g>
	<g>
		<path fill="#6A6A6A" d="M300.256,520.092l26.03,71.521l-71.52,26.031l-26.031-71.521L300.256,520.092 M306.233,507.275
			l-90.315,32.871l32.871,90.314l90.314-32.871L306.233,507.275L306.233,507.275z"/>
		
			<rect x="320.953" y="436.161" transform="matrix(0.9397 -0.342 0.342 0.9397 -118.7247 209.0512)" fill="#6A6A6A" width="424.947" height="10.044"/>
		
			<rect x="333.106" y="472.415" transform="matrix(0.9397 -0.342 0.342 0.9397 -131.3711 209.8342)" fill="#6A6A6A" width="392.447" height="10.047"/>
		
			<rect x="344.586" y="502.626" transform="matrix(0.9397 -0.342 0.342 0.9397 -140.8909 216.2667)" fill="#6A6A6A" width="396.447" height="10.046"/>
	</g>
	
		<!-- tick 1 -->
        <polyline class="tick one" fill="none" stroke="#6A6A6A" stroke-width="15" stroke-linecap="round" stroke-linejoin="round" stroke-miterlimit="10" points="
		234.074,586.025 272.379,603.889 312.437,517.989 	"/>
</g>

<!-- checklist 2 -->
<g>
	<g>
		<path fill="#6A6A6A" d="M357.261,676.711l26.031,71.52l-71.521,26.031l-26.031-71.52L357.261,676.711 M363.238,663.895
			l-90.314,32.871l32.872,90.314l90.313-32.873L363.238,663.895L363.238,663.895z"/>
		
			<rect x="377.959" y="592.778" transform="matrix(0.9397 -0.342 0.342 0.9397 -168.8524 237.9914)" fill="#6A6A6A" width="424.949" height="10.046"/>
		
			<rect x="390.112" y="629.033" transform="matrix(0.9397 -0.342 0.342 0.9397 -181.4998 238.7773)" fill="#6A6A6A" width="392.449" height="10.046"/>
		
			<rect x="401.592" y="659.245" transform="matrix(0.9397 -0.342 0.342 0.9397 -191.0198 245.209)" fill="#6A6A6A" width="396.447" height="10.047"/>
	</g>
	
		<!-- tick 2 -->
        <polyline class="tick two" fill="none" stroke="#6A6A6A" stroke-width="15" stroke-linecap="round" stroke-linejoin="round" stroke-miterlimit="10" points="
		291.08,742.645 329.384,760.508 369.441,674.605 	"/>
</g>

<!-- checklist 3 -->
<g>
	<g>
		<path fill="#6A6A6A" d="M414.106,833.383l26.031,71.521l-71.52,26.031l-26.031-71.521L414.106,833.383 M420.084,820.566
			l-90.314,32.871l32.873,90.314l90.314-32.871L420.084,820.566L420.084,820.566z"/>
		
			<rect x="434.805" y="749.451" transform="matrix(0.9397 -0.342 0.342 0.9397 -219.0097 266.8823)" fill="#6A6A6A" width="424.946" height="10.047"/>
		
			<rect x="446.958" y="785.706" transform="matrix(0.9397 -0.342 0.342 0.9397 -231.6552 267.665)" fill="#6A6A6A" width="392.447" height="10.047"/>
		
			<rect x="458.437" y="815.918" transform="matrix(0.9397 -0.342 0.342 0.9397 -241.1764 274.0994)" fill="#6A6A6A" width="396.448" height="10.045"/>
	</g>
	
		<!-- tick 3 -->
        <polyline class="tick three" fill="none" stroke="#6A6A6A" stroke-width="15" stroke-linecap="round" stroke-linejoin="round" stroke-miterlimit="10" points="
		347.604,899.598 386.486,917.969 426.798,832.134 	"/>
</g>
</svg>
